<mxfile host="app.diagrams.net" agent="Mozilla/5.0 (Windows NT 10.0; Win64; x64) AppleWebKit/537.36 (KHTML, like Gecko) Chrome/129.0.0.0 Safari/537.36" version="24.7.17">
  <diagram name="페이지-1" id="MUA2kf6paXnWbmi44_VQ">
    <mxGraphModel dx="2081" dy="653" grid="1" gridSize="10" guides="1" tooltips="1" connect="1" arrows="1" fold="1" page="1" pageScale="1" pageWidth="827" pageHeight="1169" math="0" shadow="0">
      <root>
        <mxCell id="0" />
        <mxCell id="1" parent="0" />
        <mxCell id="RA9JSMZMmfBFjFqPAGHw-3" value="" style="edgeStyle=orthogonalEdgeStyle;rounded=0;orthogonalLoop=1;jettySize=auto;html=1;" edge="1" parent="1" source="RA9JSMZMmfBFjFqPAGHw-1" target="RA9JSMZMmfBFjFqPAGHw-2">
          <mxGeometry relative="1" as="geometry" />
        </mxCell>
        <mxCell id="RA9JSMZMmfBFjFqPAGHw-1" value="include 헤더파일" style="rounded=0;whiteSpace=wrap;html=1;" vertex="1" parent="1">
          <mxGeometry x="320" y="70" width="120" height="60" as="geometry" />
        </mxCell>
        <mxCell id="RA9JSMZMmfBFjFqPAGHw-5" value="" style="edgeStyle=orthogonalEdgeStyle;rounded=0;orthogonalLoop=1;jettySize=auto;html=1;" edge="1" parent="1" source="RA9JSMZMmfBFjFqPAGHw-2" target="RA9JSMZMmfBFjFqPAGHw-4">
          <mxGeometry relative="1" as="geometry" />
        </mxCell>
        <mxCell id="RA9JSMZMmfBFjFqPAGHw-2" value="Memory Mapped I/O&lt;br&gt;BASE 주소 포인터에&lt;br&gt;할당" style="rounded=0;whiteSpace=wrap;html=1;" vertex="1" parent="1">
          <mxGeometry x="320" y="150" width="120" height="60" as="geometry" />
        </mxCell>
        <mxCell id="RA9JSMZMmfBFjFqPAGHw-7" value="" style="edgeStyle=orthogonalEdgeStyle;rounded=0;orthogonalLoop=1;jettySize=auto;html=1;" edge="1" parent="1" source="RA9JSMZMmfBFjFqPAGHw-4" target="RA9JSMZMmfBFjFqPAGHw-6">
          <mxGeometry relative="1" as="geometry" />
        </mxCell>
        <mxCell id="RA9JSMZMmfBFjFqPAGHw-4" value="사용할 함수 우선 선언" style="whiteSpace=wrap;html=1;rounded=0;" vertex="1" parent="1">
          <mxGeometry x="320" y="230" width="120" height="30" as="geometry" />
        </mxCell>
        <mxCell id="RA9JSMZMmfBFjFqPAGHw-9" value="" style="group" vertex="1" connectable="0" parent="1">
          <mxGeometry x="315" y="260" width="125" height="87" as="geometry" />
        </mxCell>
        <mxCell id="RA9JSMZMmfBFjFqPAGHw-6" value="msec 밀리초 셀 변수&lt;br&gt;array_size 설정&lt;br&gt;타이머 주기 100,000" style="whiteSpace=wrap;html=1;rounded=0;" vertex="1" parent="RA9JSMZMmfBFjFqPAGHw-9">
          <mxGeometry x="5" y="27" width="120" height="60" as="geometry" />
        </mxCell>
        <mxCell id="RA9JSMZMmfBFjFqPAGHw-8" value="Main" style="text;html=1;align=center;verticalAlign=middle;resizable=0;points=[];autosize=1;strokeColor=none;fillColor=none;" vertex="1" parent="RA9JSMZMmfBFjFqPAGHw-9">
          <mxGeometry width="50" height="30" as="geometry" />
        </mxCell>
        <mxCell id="RA9JSMZMmfBFjFqPAGHw-15" value="" style="edgeStyle=orthogonalEdgeStyle;rounded=0;orthogonalLoop=1;jettySize=auto;html=1;" edge="1" parent="1" source="RA9JSMZMmfBFjFqPAGHw-10" target="RA9JSMZMmfBFjFqPAGHw-14">
          <mxGeometry relative="1" as="geometry" />
        </mxCell>
        <mxCell id="RA9JSMZMmfBFjFqPAGHw-10" value="array 메모리 동적 할당&lt;br&gt;rand()로 요소 초기화" style="whiteSpace=wrap;html=1;rounded=0;" vertex="1" parent="1">
          <mxGeometry x="320" y="370" width="120" height="60" as="geometry" />
        </mxCell>
        <mxCell id="RA9JSMZMmfBFjFqPAGHw-11" value="" style="edgeStyle=orthogonalEdgeStyle;rounded=0;orthogonalLoop=1;jettySize=auto;html=1;" edge="1" parent="1" source="RA9JSMZMmfBFjFqPAGHw-6" target="RA9JSMZMmfBFjFqPAGHw-10">
          <mxGeometry relative="1" as="geometry" />
        </mxCell>
        <mxCell id="RA9JSMZMmfBFjFqPAGHw-26" value="" style="edgeStyle=orthogonalEdgeStyle;rounded=0;orthogonalLoop=1;jettySize=auto;html=1;" edge="1" parent="1" source="RA9JSMZMmfBFjFqPAGHw-16" target="RA9JSMZMmfBFjFqPAGHw-25">
          <mxGeometry relative="1" as="geometry" />
        </mxCell>
        <mxCell id="RA9JSMZMmfBFjFqPAGHw-19" value="Yes" style="text;html=1;align=center;verticalAlign=middle;resizable=0;points=[];autosize=1;strokeColor=none;fillColor=none;" vertex="1" parent="1">
          <mxGeometry x="340" y="640" width="40" height="30" as="geometry" />
        </mxCell>
        <mxCell id="RA9JSMZMmfBFjFqPAGHw-28" value="" style="edgeStyle=orthogonalEdgeStyle;rounded=0;orthogonalLoop=1;jettySize=auto;html=1;" edge="1" parent="1" source="RA9JSMZMmfBFjFqPAGHw-25" target="RA9JSMZMmfBFjFqPAGHw-27">
          <mxGeometry relative="1" as="geometry" />
        </mxCell>
        <mxCell id="RA9JSMZMmfBFjFqPAGHw-25" value="LEDR[0] On&lt;div&gt;TIMER start&lt;/div&gt;" style="rounded=0;whiteSpace=wrap;html=1;" vertex="1" parent="1">
          <mxGeometry x="320" y="670" width="120" height="50" as="geometry" />
        </mxCell>
        <mxCell id="RA9JSMZMmfBFjFqPAGHw-31" value="" style="edgeStyle=orthogonalEdgeStyle;rounded=0;orthogonalLoop=1;jettySize=auto;html=1;" edge="1" parent="1" source="RA9JSMZMmfBFjFqPAGHw-27" target="RA9JSMZMmfBFjFqPAGHw-30">
          <mxGeometry relative="1" as="geometry" />
        </mxCell>
        <mxCell id="RA9JSMZMmfBFjFqPAGHw-27" value="버블 정렬 수행" style="whiteSpace=wrap;html=1;rounded=0;" vertex="1" parent="1">
          <mxGeometry x="320" y="740" width="120" height="30" as="geometry" />
        </mxCell>
        <mxCell id="RA9JSMZMmfBFjFqPAGHw-29" value="" style="group" vertex="1" connectable="0" parent="1">
          <mxGeometry x="320" y="440" width="192" height="630" as="geometry" />
        </mxCell>
        <mxCell id="RA9JSMZMmfBFjFqPAGHw-17" value="" style="edgeStyle=orthogonalEdgeStyle;rounded=0;orthogonalLoop=1;jettySize=auto;html=1;" edge="1" parent="RA9JSMZMmfBFjFqPAGHw-29" source="RA9JSMZMmfBFjFqPAGHw-14" target="RA9JSMZMmfBFjFqPAGHw-16">
          <mxGeometry relative="1" as="geometry" />
        </mxCell>
        <mxCell id="RA9JSMZMmfBFjFqPAGHw-14" value="KEY0 PRESSED" style="rhombus;whiteSpace=wrap;html=1;rounded=0;" vertex="1" parent="RA9JSMZMmfBFjFqPAGHw-29">
          <mxGeometry y="20" width="120" height="80" as="geometry" />
        </mxCell>
        <mxCell id="RA9JSMZMmfBFjFqPAGHw-16" value="KEY RELEASED" style="rhombus;whiteSpace=wrap;html=1;rounded=0;" vertex="1" parent="RA9JSMZMmfBFjFqPAGHw-29">
          <mxGeometry y="130" width="120" height="80" as="geometry" />
        </mxCell>
        <mxCell id="RA9JSMZMmfBFjFqPAGHw-18" value="Yes" style="text;html=1;align=center;verticalAlign=middle;resizable=0;points=[];autosize=1;strokeColor=none;fillColor=none;" vertex="1" parent="RA9JSMZMmfBFjFqPAGHw-29">
          <mxGeometry x="20" y="98" width="40" height="30" as="geometry" />
        </mxCell>
        <mxCell id="RA9JSMZMmfBFjFqPAGHw-20" value="" style="endArrow=classic;html=1;rounded=0;exitX=1;exitY=0.5;exitDx=0;exitDy=0;" edge="1" parent="RA9JSMZMmfBFjFqPAGHw-29" source="RA9JSMZMmfBFjFqPAGHw-14">
          <mxGeometry width="50" height="50" relative="1" as="geometry">
            <mxPoint x="190" y="120" as="sourcePoint" />
            <mxPoint x="60" as="targetPoint" />
            <Array as="points">
              <mxPoint x="140" y="60" />
              <mxPoint x="140" y="20" />
              <mxPoint x="140" />
              <mxPoint x="100" />
            </Array>
          </mxGeometry>
        </mxCell>
        <mxCell id="RA9JSMZMmfBFjFqPAGHw-21" value="No" style="text;html=1;align=center;verticalAlign=middle;resizable=0;points=[];autosize=1;strokeColor=none;fillColor=none;" vertex="1" parent="RA9JSMZMmfBFjFqPAGHw-29">
          <mxGeometry x="104" y="30" width="40" height="30" as="geometry" />
        </mxCell>
        <mxCell id="RA9JSMZMmfBFjFqPAGHw-23" value="" style="endArrow=classic;html=1;rounded=0;entryX=1;entryY=0.733;entryDx=0;entryDy=0;entryPerimeter=0;" edge="1" parent="RA9JSMZMmfBFjFqPAGHw-29" source="RA9JSMZMmfBFjFqPAGHw-16" target="RA9JSMZMmfBFjFqPAGHw-18">
          <mxGeometry width="50" height="50" relative="1" as="geometry">
            <mxPoint x="150" y="170" as="sourcePoint" />
            <mxPoint x="60" y="90" as="targetPoint" />
            <Array as="points">
              <mxPoint x="140" y="170" />
              <mxPoint x="140" y="150" />
              <mxPoint x="140" y="120" />
            </Array>
          </mxGeometry>
        </mxCell>
        <mxCell id="RA9JSMZMmfBFjFqPAGHw-24" value="No" style="text;html=1;align=center;verticalAlign=middle;resizable=0;points=[];autosize=1;strokeColor=none;fillColor=none;" vertex="1" parent="RA9JSMZMmfBFjFqPAGHw-29">
          <mxGeometry x="104" y="140" width="40" height="30" as="geometry" />
        </mxCell>
        <mxCell id="RA9JSMZMmfBFjFqPAGHw-22" value="" style="rounded=1;whiteSpace=wrap;html=1;fillColor=none;dashed=1;" vertex="1" parent="RA9JSMZMmfBFjFqPAGHw-29">
          <mxGeometry x="-30" y="5" width="180" height="495" as="geometry" />
        </mxCell>
        <mxCell id="RA9JSMZMmfBFjFqPAGHw-41" value="while(1)" style="text;html=1;align=center;verticalAlign=middle;resizable=0;points=[];autosize=1;strokeColor=none;fillColor=none;" vertex="1" parent="RA9JSMZMmfBFjFqPAGHw-29">
          <mxGeometry x="-30" y="5" width="70" height="30" as="geometry" />
        </mxCell>
        <mxCell id="RA9JSMZMmfBFjFqPAGHw-34" value="" style="edgeStyle=orthogonalEdgeStyle;rounded=0;orthogonalLoop=1;jettySize=auto;html=1;" edge="1" parent="1" source="RA9JSMZMmfBFjFqPAGHw-30" target="RA9JSMZMmfBFjFqPAGHw-33">
          <mxGeometry relative="1" as="geometry" />
        </mxCell>
        <mxCell id="RA9JSMZMmfBFjFqPAGHw-30" value="TIMER stop&lt;div&gt;LEDR[0] Off&lt;/div&gt;" style="whiteSpace=wrap;html=1;rounded=0;" vertex="1" parent="1">
          <mxGeometry x="320" y="790" width="120" height="45" as="geometry" />
        </mxCell>
        <mxCell id="RA9JSMZMmfBFjFqPAGHw-36" value="" style="edgeStyle=orthogonalEdgeStyle;rounded=0;orthogonalLoop=1;jettySize=auto;html=1;" edge="1" parent="1" source="RA9JSMZMmfBFjFqPAGHw-33" target="RA9JSMZMmfBFjFqPAGHw-35">
          <mxGeometry relative="1" as="geometry" />
        </mxCell>
        <mxCell id="RA9JSMZMmfBFjFqPAGHw-33" value="HEX5-0에 msec&lt;br&gt;디스플레이" style="whiteSpace=wrap;html=1;rounded=0;" vertex="1" parent="1">
          <mxGeometry x="320" y="850" width="120" height="60" as="geometry" />
        </mxCell>
        <mxCell id="RA9JSMZMmfBFjFqPAGHw-38" value="" style="edgeStyle=orthogonalEdgeStyle;rounded=0;orthogonalLoop=1;jettySize=auto;html=1;" edge="1" parent="1" source="RA9JSMZMmfBFjFqPAGHw-35" target="RA9JSMZMmfBFjFqPAGHw-37">
          <mxGeometry relative="1" as="geometry" />
        </mxCell>
        <mxCell id="RA9JSMZMmfBFjFqPAGHw-35" value="break;" style="whiteSpace=wrap;html=1;rounded=0;" vertex="1" parent="1">
          <mxGeometry x="320" y="930" width="120" height="20" as="geometry" />
        </mxCell>
        <mxCell id="RA9JSMZMmfBFjFqPAGHw-40" value="" style="edgeStyle=orthogonalEdgeStyle;rounded=0;orthogonalLoop=1;jettySize=auto;html=1;" edge="1" parent="1" source="RA9JSMZMmfBFjFqPAGHw-37" target="RA9JSMZMmfBFjFqPAGHw-39">
          <mxGeometry relative="1" as="geometry" />
        </mxCell>
        <mxCell id="RA9JSMZMmfBFjFqPAGHw-37" value="array 메모리 해제" style="whiteSpace=wrap;html=1;rounded=0;" vertex="1" parent="1">
          <mxGeometry x="320" y="970" width="120" height="30" as="geometry" />
        </mxCell>
        <mxCell id="RA9JSMZMmfBFjFqPAGHw-39" value="return 0" style="whiteSpace=wrap;html=1;rounded=0;" vertex="1" parent="1">
          <mxGeometry x="320" y="1020" width="120" height="30" as="geometry" />
        </mxCell>
        <mxCell id="RA9JSMZMmfBFjFqPAGHw-47" value="" style="edgeStyle=orthogonalEdgeStyle;rounded=0;orthogonalLoop=1;jettySize=auto;html=1;" edge="1" parent="1" source="RA9JSMZMmfBFjFqPAGHw-42" target="RA9JSMZMmfBFjFqPAGHw-46">
          <mxGeometry relative="1" as="geometry" />
        </mxCell>
        <mxCell id="RA9JSMZMmfBFjFqPAGHw-42" value="swap-&amp;gt; 임시 변수 선언&lt;div&gt;밀리초 셀 msec 선언&lt;/div&gt;" style="rounded=0;whiteSpace=wrap;html=1;" vertex="1" parent="1">
          <mxGeometry x="590" y="150" width="120" height="40" as="geometry" />
        </mxCell>
        <mxCell id="RA9JSMZMmfBFjFqPAGHw-43" value="버블정렬" style="text;html=1;align=center;verticalAlign=middle;resizable=0;points=[];autosize=1;strokeColor=none;fillColor=none;" vertex="1" parent="1">
          <mxGeometry x="590" y="118" width="60" height="30" as="geometry" />
        </mxCell>
        <mxCell id="RA9JSMZMmfBFjFqPAGHw-49" value="" style="edgeStyle=orthogonalEdgeStyle;rounded=0;orthogonalLoop=1;jettySize=auto;html=1;" edge="1" parent="1" source="RA9JSMZMmfBFjFqPAGHw-46" target="RA9JSMZMmfBFjFqPAGHw-48">
          <mxGeometry relative="1" as="geometry" />
        </mxCell>
        <mxCell id="RA9JSMZMmfBFjFqPAGHw-46" value="TO == 1 확인" style="rhombus;whiteSpace=wrap;html=1;rounded=0;" vertex="1" parent="1">
          <mxGeometry x="590" y="250" width="120" height="50" as="geometry" />
        </mxCell>
        <mxCell id="RA9JSMZMmfBFjFqPAGHw-52" value="" style="edgeStyle=orthogonalEdgeStyle;rounded=0;orthogonalLoop=1;jettySize=auto;html=1;" edge="1" parent="1" source="RA9JSMZMmfBFjFqPAGHw-48" target="RA9JSMZMmfBFjFqPAGHw-51">
          <mxGeometry relative="1" as="geometry" />
        </mxCell>
        <mxCell id="RA9JSMZMmfBFjFqPAGHw-48" value="TO 0으로 clear&lt;br&gt;msec++로 밀리초 세기" style="whiteSpace=wrap;html=1;rounded=0;" vertex="1" parent="1">
          <mxGeometry x="590" y="320" width="120" height="50" as="geometry" />
        </mxCell>
        <mxCell id="RA9JSMZMmfBFjFqPAGHw-50" value="Y" style="text;html=1;align=center;verticalAlign=middle;resizable=0;points=[];autosize=1;strokeColor=none;fillColor=none;" vertex="1" parent="1">
          <mxGeometry x="624" y="295" width="30" height="30" as="geometry" />
        </mxCell>
        <mxCell id="RA9JSMZMmfBFjFqPAGHw-54" value="" style="edgeStyle=orthogonalEdgeStyle;rounded=0;orthogonalLoop=1;jettySize=auto;html=1;" edge="1" parent="1" source="RA9JSMZMmfBFjFqPAGHw-51" target="RA9JSMZMmfBFjFqPAGHw-53">
          <mxGeometry relative="1" as="geometry" />
        </mxCell>
        <mxCell id="RA9JSMZMmfBFjFqPAGHw-51" value="array[j] &amp;gt; array[j+1]" style="rhombus;whiteSpace=wrap;html=1;rounded=0;" vertex="1" parent="1">
          <mxGeometry x="590" y="390" width="120" height="80" as="geometry" />
        </mxCell>
        <mxCell id="RA9JSMZMmfBFjFqPAGHw-53" value="&lt;br&gt;&lt;span style=&quot;color: rgb(0, 0, 0); font-family: Helvetica; font-size: 12px; font-style: normal; font-variant-ligatures: normal; font-variant-caps: normal; font-weight: 400; letter-spacing: normal; orphans: 2; text-align: center; text-indent: 0px; text-transform: none; widows: 2; word-spacing: 0px; -webkit-text-stroke-width: 0px; white-space: normal; background-color: rgb(251, 251, 251); text-decoration-thickness: initial; text-decoration-style: initial; text-decoration-color: initial; display: inline !important; float: none;&quot;&gt;array[j] &amp;lt;-&amp;gt; array[j+1]&lt;/span&gt;&lt;div&gt;현재 요소랑 다음 요소&lt;br&gt;위치를 바꿈.&lt;br&gt;&lt;br&gt;&lt;/div&gt;" style="whiteSpace=wrap;html=1;rounded=0;" vertex="1" parent="1">
          <mxGeometry x="590" y="500" width="120" height="60" as="geometry" />
        </mxCell>
        <mxCell id="RA9JSMZMmfBFjFqPAGHw-55" value="Y" style="text;html=1;align=center;verticalAlign=middle;resizable=0;points=[];autosize=1;strokeColor=none;fillColor=none;" vertex="1" parent="1">
          <mxGeometry x="620" y="470" width="30" height="30" as="geometry" />
        </mxCell>
        <mxCell id="RA9JSMZMmfBFjFqPAGHw-56" value="SWAP" style="text;html=1;align=center;verticalAlign=middle;resizable=0;points=[];autosize=1;strokeColor=none;fillColor=none;" vertex="1" parent="1">
          <mxGeometry x="569" y="475" width="60" height="30" as="geometry" />
        </mxCell>
        <mxCell id="RA9JSMZMmfBFjFqPAGHw-57" value="" style="endArrow=classic;html=1;rounded=0;exitX=1;exitY=0.5;exitDx=0;exitDy=0;entryX=1;entryY=0.5;entryDx=0;entryDy=0;" edge="1" parent="1" source="RA9JSMZMmfBFjFqPAGHw-46" target="RA9JSMZMmfBFjFqPAGHw-51">
          <mxGeometry width="50" height="50" relative="1" as="geometry">
            <mxPoint x="710" y="270" as="sourcePoint" />
            <mxPoint x="760" y="220" as="targetPoint" />
            <Array as="points">
              <mxPoint x="740" y="275" />
              <mxPoint x="740" y="350" />
              <mxPoint x="740" y="430" />
            </Array>
          </mxGeometry>
        </mxCell>
        <mxCell id="RA9JSMZMmfBFjFqPAGHw-58" value="N" style="text;html=1;align=center;verticalAlign=middle;resizable=0;points=[];autosize=1;strokeColor=none;fillColor=none;" vertex="1" parent="1">
          <mxGeometry x="705" y="248" width="30" height="30" as="geometry" />
        </mxCell>
        <mxCell id="RA9JSMZMmfBFjFqPAGHw-59" value="" style="endArrow=classic;html=1;rounded=0;entryX=0;entryY=0.5;entryDx=0;entryDy=0;exitX=0;exitY=0.5;exitDx=0;exitDy=0;" edge="1" parent="1" source="RA9JSMZMmfBFjFqPAGHw-51" target="RA9JSMZMmfBFjFqPAGHw-46">
          <mxGeometry width="50" height="50" relative="1" as="geometry">
            <mxPoint x="512" y="370" as="sourcePoint" />
            <mxPoint x="562" y="320" as="targetPoint" />
            <Array as="points">
              <mxPoint x="560" y="430" />
              <mxPoint x="560" y="350" />
              <mxPoint x="560" y="275" />
            </Array>
          </mxGeometry>
        </mxCell>
        <mxCell id="RA9JSMZMmfBFjFqPAGHw-60" value="N" style="text;html=1;align=center;verticalAlign=middle;resizable=0;points=[];autosize=1;strokeColor=none;fillColor=none;" vertex="1" parent="1">
          <mxGeometry x="560" y="400" width="30" height="30" as="geometry" />
        </mxCell>
        <mxCell id="RA9JSMZMmfBFjFqPAGHw-61" value="" style="endArrow=none;html=1;rounded=0;exitX=0.5;exitY=1;exitDx=0;exitDy=0;" edge="1" parent="1" source="RA9JSMZMmfBFjFqPAGHw-53">
          <mxGeometry width="50" height="50" relative="1" as="geometry">
            <mxPoint x="510" y="520" as="sourcePoint" />
            <mxPoint x="560" y="430" as="targetPoint" />
            <Array as="points">
              <mxPoint x="650" y="590" />
              <mxPoint x="560" y="590" />
              <mxPoint x="560" y="530" />
            </Array>
          </mxGeometry>
        </mxCell>
        <mxCell id="RA9JSMZMmfBFjFqPAGHw-77" value="" style="edgeStyle=orthogonalEdgeStyle;rounded=0;orthogonalLoop=1;jettySize=auto;html=1;" edge="1" parent="1" source="RA9JSMZMmfBFjFqPAGHw-75" target="RA9JSMZMmfBFjFqPAGHw-76">
          <mxGeometry relative="1" as="geometry" />
        </mxCell>
        <mxCell id="RA9JSMZMmfBFjFqPAGHw-75" value="" style="rounded=1;whiteSpace=wrap;html=1;fillColor=none;dashed=1;" vertex="1" parent="1">
          <mxGeometry x="539" y="210" width="221" height="400" as="geometry" />
        </mxCell>
        <mxCell id="RA9JSMZMmfBFjFqPAGHw-76" value="return msec" style="whiteSpace=wrap;html=1;fillColor=default;rounded=0;strokeColor=default;" vertex="1" parent="1">
          <mxGeometry x="590" y="640" width="120" height="40" as="geometry" />
        </mxCell>
        <mxCell id="RA9JSMZMmfBFjFqPAGHw-78" value="이중 for문" style="text;html=1;align=center;verticalAlign=middle;resizable=0;points=[];autosize=1;strokeColor=none;fillColor=none;" vertex="1" parent="1">
          <mxGeometry x="540" y="218" width="70" height="30" as="geometry" />
        </mxCell>
        <mxCell id="RA9JSMZMmfBFjFqPAGHw-103" value="" style="edgeStyle=orthogonalEdgeStyle;rounded=0;orthogonalLoop=1;jettySize=auto;html=1;" edge="1" parent="1" source="RA9JSMZMmfBFjFqPAGHw-80" target="RA9JSMZMmfBFjFqPAGHw-102">
          <mxGeometry relative="1" as="geometry" />
        </mxCell>
        <mxCell id="RA9JSMZMmfBFjFqPAGHw-80" value="msec를 인자로 받음" style="rounded=0;whiteSpace=wrap;html=1;" vertex="1" parent="1">
          <mxGeometry x="-239" y="122" width="120" height="40" as="geometry" />
        </mxCell>
        <mxCell id="RA9JSMZMmfBFjFqPAGHw-81" value="display_time" style="text;html=1;align=center;verticalAlign=middle;resizable=0;points=[];autosize=1;strokeColor=none;fillColor=none;" vertex="1" parent="1">
          <mxGeometry x="-254" y="90" width="90" height="30" as="geometry" />
        </mxCell>
        <mxCell id="RA9JSMZMmfBFjFqPAGHw-98" value="" style="rounded=1;whiteSpace=wrap;html=1;fillColor=none;dashed=1;" vertex="1" parent="1">
          <mxGeometry x="-560" y="71" width="221" height="492" as="geometry" />
        </mxCell>
        <mxCell id="RA9JSMZMmfBFjFqPAGHw-101" value="" style="shape=image;verticalLabelPosition=bottom;labelBackgroundColor=default;verticalAlign=top;aspect=fixed;imageAspect=0;image=data:image/png,iVBORw0KGgoAAAANSUhEUgAAAkYAAAEMCAYAAAAh9nn7AAAAAXNSR0IArs4c6QAAAARnQU1BAACxjwv8YQUAAAAJcEhZcwAADsMAAA7DAcdvqGQAAIYBSURBVHhe7f0LcFTXlfcN/+3EeWKrW1jCgEAgmegCWHHcgDAQDCaYi0TZMRmj+mLZ/p4KzBimkkryySY1VFyVmipP+SmDqSQV14ATPDVvbOwq2QkZ+0XiEoK5DGCEke3IgJAGq7mDkYy6ZeeJY+dba599us85ffqqbqm7Wb+qrdbZffpcdp8++3/WWnvtG6qn3Pl3CGnh3bdW4K57X9RLyTPYzwuCIAiCMDhu1K+CIAiCIAjXPSKMBEEQBEEQNCKMBEEQBEEQNBJjlEY4RmiwSIyRIAiCIAwfIowEQRAEQRA04koTBEEQBEHQiDASBEEQBEHQiDASBEEQBEHQDHGMURGeXbwEvkLAf/BV/OM5XR2L0gXYMbsA7TvewE/6dV3KNOC7j62C71oL/uW/ntN1mpoX8X/mlwH97fj1b59Et67OBAu+vQuLJ+gFomfPQvx7h17IJYawzSJY2IzvLwVamxpc9pvCdXY9E7Mt3XgKdRuWoYL/7dmK53/xtKoVBEHIB8RiNAzs/q+F+JfnqTS3I6jrsocn8M/f34Wn5jXo5Sxk0kY0Lp2IvrY/ZFyMLZ/yAHYsX4AmvZyX7PoDDgcmou5fN5KkjMejqP1XEkUsiJpqRRQJgpB3DLEw6sNPdryKxa9l4VN8xwpDrAy15SOXGZY2ewp1q2pRRB3zli0v6TonWXydZSUvoe1nW9HtrUXjj57SdVGYdA+qvQEcbhVBJAhCfiIWIyGnKGq8DxU4jVaxVKSZp9G67TRQvgx1C3WVGxNGJmBVEgRByF3cY4wKp+N3i6uAju34h+N9utKAXQuP18AW82PUFRgLzNkjWHzIakMIx3wYDESPGdL79uhFgxjrx8EZz6M4Y4kxMuNkTKzvOXBuK/j+Jjy9t1kvARXztuKfyrvw699ewOLv16Nc1zvXCzF6PZ5q8OFq1BgjHRMVajf7ttT+7vS4xCjpzyHx2B9zW9GwnUPcNjP2X9mzCf996yrVZurzV+v154Job16GVy8ba0eep/N9EyO2pbjt51GsRYldZ02zvos60DX6wa22ay0cj1SB3yyfAcsZOriM1td2Y4Neisv8WhxYBLz5H9dw7/cmw4sLePOnJzF27XxM552facOcjReMdYm1qx/A/ZbrLNC+B3XNAb1k4sUvzc8rAjj6H3vwwy69GCLR9Rh2k/0YM9GGLT9bDfsvX6PikW7D4U3fQttJXScIgpBHuFuM+v8HXdSZeCZ8Dct1lUER7p5AAujsB7qz4Y7ouySKBqijMFwXi187Av/4GdixeLrls2HXxuKDEb1dGA60po6qlzooY1tx1o8Jd7YkZEaQOGB3jyqb0O4UV6Y7yO09C4Yo8mNHaFsLqdN/BN8drVcwKfThn0gUgcSKWm+PH547V+GfSUwmy4JvPwJsD+/P3JYZ/9O9dx966LW84gm1HGL0TFSSOAj2HE7YxdW9d5neT4vaJguZ0H6p2IRdgm2G8kfwzY834dfvB+Gh/5+aD2o/3r4HlZPNGCaOadIB8Xpfv34f8DVsjWzbhXeRZAmg82h8F1rc60ZdoyOwX19nL3QMoGz2A3hWiapu/KOl3hBCeruqJCGKQnhwb8MIvPXTNnyIsbh37XRUd+3Br9pJ8EwoxVq9liGKWDi9gTm6vDVyOn5ZqVdQjMXL/0Zip48ElV7nV+3A9O/Nt69XWYVWXg8n8KvQ9o5SO1bhYb2KnZfQfZKOxzsJFZN0lSAIwnVGFFdaH94+Qx1C4TjcbbFWoPBrqsP1n9HdbelUejrnp3JrR0GdCndKhVWoK9VVCUEiq4Z6wrNH0hMXUlNPxxZE+/Z0xL80YPQIejnTgd1GhWL3f7lZNRyjzDpalHiIEC8JELF9vS1P+UxjRBCew8kz9DKhBgvUskHF5Erqhv34bzcr1RDiKewNH0OhB1f3rAi1n+dWwx5TMW8uyulYd1gsTt17X6bz9MA3y95mFTUTgcBJ6rx1xaCwX7evnTuPIApQ7NUVaYc23HUSz4SWzuE/Q1YgD8YqQePFWPZTnTkXWo95ZqPdwvNwwyTczlYni5XpleajOBr0YvrCsbqGRNbCyfAGSRQ9cwqv6Dq2GP1wo3XZTt/Rk/Tr9+I2p5VVEAThOiFqjNFrxz+g7qoAlaXhiILlpePoFn4ZH2jh0jSBH+kHcNFpNTjXQ58FiguTiEZwiq5BsqCCOt7+LhxJ1eBkoxmXr9HLhHr8n2/HEzh+nLS5tfRnR4zVYmYw6G1Z2N3NLV2GSSGLVANmlHsiRNywYDuGIPqu6H9DRDtWtzZ7FEXF9NJ71t3Fkyz95/F2LGtX2gmg85jFHdYXdBEnAVzgk5tQiwOrwwLHjhezK0lkOcRT6LNFHm0NGouvk7gJdF2MKoJcOXkWvfRSPPpRY9lBesWpIAhC9hEj+LobH5ylZ9mQO81wowU7jtndCP3XlAhywzOCe7L8gIfYs0tIiaPv71Il40PaOQZJ78ssEfFSTouUcqMF0X7IPU4quyhDEVskLW0a9TyvE57ZyG4xdq+ROPq3B1RpbbCasTwYyfFClvfNYo1LQiWtRy9Xr1jE2CCo+FEbvr+hDVUdtXg+WvyRIAhCHhBzVNqGM+wS0+40ZdEZQNe5xG+JwWv87Jk/hONwjNgaa7xP2tGB2R4ObNaxN1x2sOvMRjOO9LBgM9xpyo2WNktZpvGjj602jnMMles0dcIrzXt0PNAeHKWv1uubbxFHQVzl5FccsB2KG7IU023WRevRy8hR6fENdv+CBFFTLU7VkEBKKN+RIAhCbhJTGOHcMRIAhjtNudEc7gebcLJSWo4yJCei0P+xYcK3ud903FEK9HxMvUdhcWhkmELFHen/B0UzXv2tFkc6ViY6T2ASPcknEwjNGHFCiVl+jCBsdqcZrqlk92XHECvxzysdJONmfAl96gIZP6Sd8mv9HHxdgJK0XDfJEsAPn9HiSJmJjDq7yywahoDyVpbEWc/BpPFQHsvL7gHu3R2naaMSnC0IQv4SWxjpIGzPhKmom1AAf8dRvKbfUWjh5JtlHYFWgd/M5iBqc+RaomjXXc3UUJbhpllL4COBxQ/IydJ9oos+V4ZvmhYdtsDML0YwqWMyeQL//Nh6e+dtjvz6OJoj0WDBt3nYfvKB0N1XWQVYR2/pUXauLiYjCLt8Pg95H2zQtRlPNTdyVFgG2H2oHUEeyRc3dmuYOuXANbqO6Bq/Y/ARYvEZi5fXOkaMkbCpJk0UUGYig2d2nUDAMxk/iBqHxJCoOniBLiHnel78cnW0UWmkt6ZPIuEZwEcRlklBEITrg/hzpYXyCkXL3eLMHUNiwZn/yDU3kab/FF7YYQou+7bUds59jT47Dl2p5DGy5dvhofYrAB52j3DenQVueY40ttFlpmtLLzLO/EGuuYAi5hHj4enhHEd2jGM0A5Gd2+P9nayg4+UUBE43k3muMfIwJY4zrxB9F5Y8RvHbTH9ez0lnnAd0biJ9/rbjdG8TZ/vGzWOU4HWm8hgVWq87Qn+WU0VEjIpU8/VZVWIqeYw8On8QD7Wvxe06d9HDDfPxAx/CuYV4iL3KdRTmw51v4JE9eiGE3o5eMolYN2J7CeQx6o0x/5nkMRIEIc8Z4klk8xtDAPTaxM2QoYVRpJjIL4oa/4TGWkjHnAkSET0ijARByHPiuNKEXMFIT9COHXksipi+LX9EN7yY2SgBwOnlKdQtnQj0/DG24DlzVUakCYKQ14gwygPYUrV4QrqSWWY7T6N1Uxv6EpnwVEgQPWN+oA1b4s1Bp/IckTCtk7YXBCE/EVdaGhlqV1o41ifa3GJR4p5cyDkXnHLpAK1NDdeBGMwwSbelEeulwtF7YsQjCYIg5CAijARBEARBEDTiShMEQRAEQdCIMBIEQRAEQdC4utIKvCPw6ScD+OLzv+kaQRCEoePdt1bo/wQrd937ov4vNvnWfomcdzadc6LfUz6Qj+0uwkgQhKyDb7ZJ3+RKZmDJNC+69u5Gdyrp8hXj4Fs6A3jnD2i/qKuGEU/lAswZdxYH9nbiQBJtkmz7jZn2IHw4gu3vnNc1qWE93lS/Auc2Ej2XVK6ZdByvQl17QPu2I9iRyrWbwyTb7mlrc0815swbj4v6957SPSMKIowEQcg6Qjc5dfOb4p7NnLlo6cyjCaM42wh27saBroBeSlYYeVExbwFKzlu3EZ8bbxmPSXdNwfhbb8GNNwBf/PUarnT/GR98+BH+arkjD0YYzVn5IeZUW3OoO7C0XVRhFK/9meDxUCcXrdNT9VGPJWD7zpzbSLTDM9dT51KiK10J7y9WJ53MMV/3wuj/8z6d/zhd44LlWovV5oobvori2+/EpIoxKPzKl6jic3wW/Ag9He3ovvoXYx0mg8JIYowEQchyuBP6A7Zvs5eELTpBEhWOzxplN7pc78yZ5aaS6bj33m/Ac+UY3tphHMsfD3fhi/I5uOfuibFFSLKwaIk470G0nerczpMAsNRF6+CcuB3L3uOJfTYJLpGoDe/D+I5Z/FrrbMI5CsEu62csJQPHnB84rgtrcQruqNyEMVMXYEb5F/jw7e3YyZ9tacHbnZ9g9N1LMLsyhtBPIzktjHjOqx3Lv4vfTcmOHMgN636PXTs3I/50qELWw/Oj0bWlymLrJMnA8ikPUP2C0GTH1y38lLx0ASri9OT8BL9kXnV6O/zhQJ0vnYutLEAlnZineoHLezMwRn80TDEqvz4efz21D0e6PsJfPzdqvwicxXv7j6J3xDdQXcpPycL1C1shH8ScIRIBWcVtNagp+QQnDx3Fhf7P8AXX/f1zBC++h7b3L6GwajLG3KDWjI76nbr99hJHLEYMTyBKHeBvSvWycJ1Tgd/MHg3/wVex+LUj8BdWoc68NuhaaawpoPeSmEQ2Txkzbhxw8UScp+9xGFtCT/GdCVoVshl2BzifhLcdwLm/AX89vc/lvSO4pD8awnMbir8SwMWLLm63v53FhY+AUWMGc0vPLDd+OddE20348pf1vznCmGksts+jKwnXbN7w5Ztw06eX0GvxmJl89nEvgjd44SnQFdGge1JXcBx8g3gYy2lhtOEQd1yv2mfyvx55aB227tyJXaEiVqtBUXgrPdcPoFfdl3rR20/P+YVslSzCs7Oq4Dl7JHIG/kThLNMb2qg0G5mjXaj4Eb8fLo2Nj+p3sghPNSpZ8JyPbSL3VNITHs7jQhYEMmeCm8ZXopQ63q9MqMDYHOuAU6HQO4L+3gpvpo0ZnimYoy1v/88pXZcKN9yCm78K/K+v/i9dkd1w/I2vhF3HLqLaJGS5HJxVZFixfL+2eLC/fYbPbh6DYvrOnNx0azE8fw8gOKArohJAN7cf7yNW3FMMxGKU6zy5GbtW+4D2F7Bw0SIqL+DYQBnqRRylTv/HJIcKUKxu/sUkikge9fdh+ZR74Cu8jNZDqUxCwtNokNCpeRetPboqAp6zrA115afR2lSL57lsO42i2h9nnTjylIynp7F4gseLMeOoES+ei36THwo4SFPfhO3FcIOlyo2FU1B7ZzEuvbMPXZ+Mw9dn0hNqPDN/8CP0/tWLkhIXZfHl8Rh7G11rH/XqimzDi5GjuMe6BSPdeq50YolH+v9W6bpUuO02+gVTp1pMnapRkzAsUiKvGSrxgtFTZhwqq70Idh6JYoXlgQG0/3HnsmLE5KCwfL+2c/moAx0Xb8GkWdMxtvAmQ6Dc8CXcfFsN/dbGoP/UCVxKaK6O82jnuCYSkbED8d3JSWFkxhaZxc0FpuJAVGxIBX5jWdcajxTazuIqdaGXzQ6vxyV111oTXrRYcLaua9D1FljQWNbZtdkesfLEZvfP2usbsO6eMsDfgmVrmo0V0Iw1y1rgRxnmuu13SKDj2moco+14Q+f8e6x7SK+qsLdX5PuaOG0Wxrm9ZEViN1o7BvT1MANlykJUgbqUXWjGJK3YRkIn1rxiCx/ETG8AhzdZ5izb1YAtbQESRw9GWphMS2HUdsgU5g2cblK6xpWSySQ86Om3M9HAy2h4UTnP0TlRSe6G5x7AzSWZ0WQGdKMum4F7Z5fh0/f30I29F90HduPk3yoxZ8EMlN4Sy93Ui64/n8VXquZiRuVtUINuiBu94/GNe6Zj1MBxHD/j4kcYCqwxVG5P2oVlKPV8hk8//Qy3jh+Pr+jqhLFYCUIlYyKD+RLGlpXjpk8/waeecpTSA44r1uNyul+iBK8nGsCdDKZ11d2FxnFHxmjJ6IHM4dgkFddH56PilELfqzMeUAutUIkfL5h5PsOlY7txpOdG3H73Eizi46qvx+w7vOh9ZycOJvNbVS41YEx18i61nBRGpgtt8Y5TseMWCqvw+PI70LtDr3/wMjw1S0KCx7kdI6YkXFJzl7C1ph7YztYbKtv98PgabR29CtJeUoxjG/U6i0jIlNXbOrjnVrLlh34svrpwp07CoJ50ULD9BUMIPXQ3qgrouI/bu+qGdXPpKOizVXeTRBlGqhoxt/cFbGoP0rE0YusSoIXPlS7TqlnmkbGIqUcZiTujLbjsw8jH1tmOPZE2Uyjx5NxeB2qSFA+vHX8jfC0c6iYRTQKp/xRaU7omXkLbz2rRuksvRqGiZiL13yfRfVJXKJ7CzFq2LkxE1UKjxqRhVqXxgy+rGVrrYEkp3cCjxMlYUDFIwbO4NJgOJOqIMl0SHu0yeG788ggUT/wGZt53P+65/TOc2LcL7Wc/Md78ewD+w9ux98RnuH3u/fjWN7+B228bgZtcNNJnF4/irbfeQ3DUVNy72OiU7ptZiRt7DuCt/+5EMKEn4gxgjaGKaNcvYUxlOW7+tAftR3vw6YhqVI/SbyVA1BFeqqRfZCg8FfjaGOBK5wF0X7kFpZXj3Ds8q/hJdIRd2olnXWX3UIKjCcfNQGX/bhzoDMBD/8/RaQQu0T7ClkojLcUYW9zcCXinDWaQhFNo2cs3EvX7/f0v6D19BAd3vamP603s3nsIJy/p31rCBHDpPN2jPOMxJsmTyntXmv/gG/hJv14410Odshkvkjn8JIpWrNcL6zsihEC9z0PiZgvWvK6rsAErSEChbK5FQIUtP/WqUycBscRhHZrI5uEgrp42Fhm20Kyq6kILiREUFCuBlBhFeHax3WJmK46RWYngKejFPvNYCzzo3b4SzxlL8BRPMP55aKwyddvFHbXHsjXUAiaJtlnYgrZwpWN7tuUkKV2AuvEDaD90FK/pqvTzKIq4IXrPIhQxN2kjGjewpWmrsiAVj7a705oPdRk3cX9HqF2HgqwNulY3+Qx1sjd4MXHWXNxVchMuvbsdf9zbjguf6CFlIT7Hp+facWDXdrx74SaM+cZc1E50cZkRX3xyFscP7sTOFqNT2rlrD9pP23MYZRM3jvGhhr7PCx+cQH//CRynB4TSr9fg1niuw2Hjqyi7cwo8/cfRee4TnDvRif9b4sMdt+m3sw3PWJRQ5x0vZi8RPGylNS0rHi8G3gnHK3kK9fXo8YBjmO37O4/2VIWh68AEe3kvpnn5FlTc4y6oXEuCgdXBi2fpfLzwijCychkfpBokmzJ+dJiiyI0na0isBHHqULjbV5zupVoPRk7Uywqz8683rCC07ZaoHbzhPmILzUISFSwAk6MPPzEta25lRwqiwNZh2wVciNcvgCMqypbsxItPGlURJNpmUSxog4MEY81oBDv2hwX2EFDU+Cd8f9VIHG6KYWl6fQ2WsUVsMKIvWYYr6Nrq5olZMuQO+Ds9se9/E386eBQffvQXYxixwmVo9ef8xHsUh3e/mZzpP1v58jh8487x1Pm14/glFoOf40pHOy59qRLTpo7DTcZaaUNZlwZpufFUzsKUW6+h6129ncBxvNv5CUp9MzAmG4PkPSPoThZAIB2i3mZ1irLNYBAcwxw/GeZQ8Qn9viLFlLKQuYmuhHNnGedZQAIxGfLeYpRtNIxhs4AHU1dbY2CorPa5K+D1K9GiVY7fYnGxMZFjTQz3XTjWKFcg8acCxg1xZLSHPcYo4TZzsaANFjPgev/xPltsWyZTO/CotMZJJ7GlyRJrlCWooOvgcXTFFDyGWyBuDFIyJPBEKon3XHCL66GScGd4czmmzScx8ZfjePvYeXymq/G382g/fByfjpqBudPLcXMilqOoQfAuJeWh1l9C4cQ5uLv6Flw6dgDdFl0a7DqA9t5R8M2qwa3XwQjC2HAyRiP5pRmPlI6HChWwngc5y0QYDTHNl9g+ErTEythLyAWn4dia+rIg/P4gCQdHULK2mExdUolTtD3rZ8uK6dIc6E3CcpR+V1risNtQt8HGduOcVofPNeE2c7W6DQJLziL/lAdQV3gKL7D17OBllM1Od4LHl9DHp1m+DHXYiud/ttriUhuv3I29l18ylocNHXR9/gK1cwx00HW8GKShxT2AO1yW4uvZ6mZJkdhxPVQSiM/6StFo3Bx4DwcO0BO6080X6MTB/34PgVtuQ2Ei6Y3ixYvpwrExKXPDLRg19hZ81L4b7RdDMk7Dgb178OdPx6Bq3C26Lg5RhGWoLPap32ZuYsQtqXZXDxX8G8mGAOzhR4QRo4ZnZz72SJFM5/3QOjyiY2tWrNxHIocEgzUo+fW3cYrthP59ltgbpgk1HKR96m1LnE48MuBKSwV2D2lxFGqjRNvMdMtNSYdksecsKhtRoK4T1QaBa3Q8BSiJNsolRbo72NQVwOFW+8i1oumT6GhO41SES80cfTdEqRmGMujaSSKutGgjnBLqkLfhzx/p9TPEV8rn2o530cIl+NaCKOW++/GNLHBx/PX8ERw4fDp6QHjgNI7sO4pL2TKtJrs8/3sn3jsfZWTf3z/BuaO7ccQfP5A3rrDksqNd3XMGTZDvKcnHwqQN/o1ocZTpY0iHqzRhdCzVQDA5sS3CSGEk8fPUTE2zFcAF6vj3cdiQ0/oTAXV67CoaaMfLyj2m440KfHgkNAy/GWv288bqLfE5PFS+HmWhz2U5T26OSElgjLayuMQSbrMNRtA5tYd9m9SWyQ5pL51qy1nkv0YKtPBWZTVbXjqOjm8AF9Mdc7TrDzgc8GJm40YSQpqFzWis9aJ7m4tbTcVeMUORmsGLiuoEgq7NGKSMBF3HmIspVDIRfB1rtE2sKUF00UPf/9pjz469c9d2/Gl3lPLHN/FeuuKzhOwneAEX6bpVDxVDAT1oOKccMXKTpSnOKUtI9ZxyUBhZ8hJF5B9K1b3B1pIj8GM06sxtU8lUHMlzKxdhUzsiY2a2mtYgLW7oP/9+y+gsHW/k8T0e7vipjlMChONzHsdUtGOTbVRXFkPH/zIabe2wyteLlkXfsVnB4reZQfOa7+gUCY9b1qtBRzIByjxFzGwOuD5GUsvgteP7qVU5/cN38XgN0L4juXxG1mzWdeVcM9FI+MjlR0+pdYxh/T/HYdSi0Xxv6UQSRVECsNe3qtgsJjTKL1MkOGomscSPuUYigixGGcKUAkKuooeWK6usO+FYIDNGzCLYk83wfPEI3oXdCjunOqDijjIyqnNYMFMgxBtBG8kN1VPujDCSFnhH4NNPBvDF59liHxUEwQ2OQVvl89hTRGQADqqcM+4sDsQ0gfMIrQUoOb87haSJdt59awXuuvdFvUSwKy3Rmz8HaqcsRoz8LpxILxuyC1vb/YCzTWIQ0X5xUKOTMJh2M0jsOomNcxuJnkuy58yk43gV6vo08gXtSOE4DCy5hXJITFvbXbVndWIjwC4N9jfGwfzzxuPiXkPMud8zvOjS7yeDCCNByFk4xshwm2bWQmjcsAs64wieQdyInKTSyeU7ybRJPrVfoueSLec8mOMwhcWgRcMQkp3tPjiRKTFGgpBzGFOucG6rYp4jL+NuU8OVFNcKpIbU55MpXhCGFg5MZkHEM+zL6LBUMaZPGcMZzVO0vIkwEoScI5zeIPfyVgmCEItL73B+oSgTDQvxUelC6GFuEO5REUaCIAiCkDUY+YUGG6d33aIs1+FpUFJBYowEQcg6OF5AiCTRWI58a79EzjubzjkbYm6GinxsdxFGgiAIQsYQwSLkGiKMBEEQhIzBwihZQZK2YfSWId2/+3+zY/SUkP2IMBIEQRAyRkgYxctFZRlaHVcY3fBVFN9+JyZVjEHhV3iits/xWfAj9HS0o/uqZToQEUZCCkjwtSAIgjBExMginvDQ6pswZuoCzCj/Ah++vR07+bMtLXi78xOMvnsJZjumuhCEZMlpYdQ0y5i643dThmDy1wTgLMRDNqFnDvJww3wcWFuFh/Vy3sJTimRwSpmEqaxC67/Nxy8r9XLKWKbhWf4AnrVOnpst5zrscO6UBKZmYKvJUslRMyhuq0FNySc4eegoLvR/hi+47u+fI3jxPbS9fwmFVZMx5ga1piCkhFiMGLm5Z575tfiBz4sPD57CK7oqX1GTzPafQus5XTFcdJ3CW2e8mP69WqzVVanQNGsGys4eweLXXkXr2QL47qjQ7xTh2VlV8NB7/zjc5zrcqLnkAujqjG31UJOEpjB3k2Dhyzfhpk8voddlAv3PPu5F8AYvPDyluiCkSE4Low2HXlU363843qdrrmOe3KwnTM1CixVbLhaNRaB9Dx7Zo+vylgrU1RQgeOZ/8JquSZ5HUfuvxiSyjY2P6jonT4UnoVXlT6idpN+y8MzGPTgaHIv7U7bUFaGkEAhe61VL/msD9CBxK5bT/8un3ANf4WW0HoqY9z8xJm3Uk+W6H7sitI5ZmqmFs48x1VPgCZ7FpViCx1ONypL4E/HGhGNm1KSfMaxOoXXMMiPqxKRZjWdK6DyMSVM1f/sMn908BsVf1csWbrq1GJ6/BxDUkysLQiqIxSjn4fmySBBN6VAz72cjaxdOhjd4Av/ZfB0kLCstRxkG0HUuNbFe1Pgn6vxXAvvaEHULSiwsQ0XPVjzfVKtKa48XM1e5CYwAfth8AgHPZPzvhlRiL/pwsZ/6qBHFaqlsBD2K93+M1wqno5EEoP/gbmxQ7ySDFn6NwOG2GNfEwmZ8f1Ut0PZzfZ4/x+HARBKE2SaOxmEsddzB8xdijqDylIyHB+dxIaU5sExXHdDVGWe+unlTgM7dOnaHsyjreaP0KjkDT+mg449s84Z91IGOi7dg0qzpGFt4k9GJ3fAl3HxbDWrvHIP+UydwKWJIkSAkTk4KIzO2yCxuLrDlUx7AjsXT6cnWGh9hj0cKbWdxFd2w6KY/O7wel9Rda1qs6LJ1XYOutxCy8OiyuUm/YfDEZvfP2ut5zqx6YPsiLFyZfPc0JFRW4d4JcHehPbQOW3f+HuseMtuL/w+f466t6+gMwxgxXPo9Lo42M3Gu59r+RKLrJU4Rnq0ZDZz9AD8hMZE0JAQaJ53ElqZvoe2MrnOhoq4WRYE2bPnF07oG6P4FiwYSR3VP6RoLyqVGXatvUkoutQ0fnEJw/Az1m6gbb1iImu5I3YVW8aMfo/okiZ2frYZhh3KDxNPciQCJvy1bXtJ1L6HtZ1vRjYmYGWFJM+ePG3qLqadyMomO8+iKmal4HCqrvQh2Uqeta5KB584qOU9iZ28nye5okHiqZlfdEUvWZM6izFmAaf8qKNkQWHPof55Rn60x/L8R+8TLTksUiypjPff3h4PPcOnYbhzpuRG3370Ei/i46usx+w4vet/ZiYOSMVoYJDkpjEwX2uIddMPWda4UVuHx5Xegd4de/+BleGqWhASPczv+g3pZl9TiJspQv1OLlUVUtvvh8TWqDt9EdchLinFso15nUQv8ZfW2jv65lS/gGN0BPb668I2exFR9GT1Itb+g58gy5sxasd54Oxt5eGop3Yov4M8xXGhVj83F1Y18vh76//eoR4tqNxRU4m7dbtxmq3ywtNkibOqdixefNN43YVG1yteLFr3Owo3tgO9xh+gxOlHn9l5Gne17SprCr6GykK6jMym6lnY1KLEQ29b0FKrKgb6T++3rLXwQM7nfK7/L1ZryzIkL9Hcsvj7fWE6K/qP4h9DvYjc2lC4ggTSA9g9SO8/uX9RaxE4UJt0D0hHo7giLP6ao8T51fkX0vm3IxUN3o0rFlZShxnFNZBYSGOPoQC+eiy14SkpJPAVw8WJqnTbPth53iggV5xTpqjOEG72OG6seABXjZqCyfzcOdAaofgbmTAPa1TQK1jm6LDOUa8vN9m0n4J1WHd5O0jiFlr18I1Gz1t//gt7TR3Bw15v6uN7E7r2HcPLSJ3oFQUidvHel+Q++EX56P9cD9jYVF2Z2FJufRFFIrKzvoH1Shz/L7JibUO/zkLjZgjWv6ypswAoWAmVzLR0zix4STCy0lGBqwotLSBX5WzI0cWgRnl1st5jZirK+JYvXGDp75hye0TWReOC5ui/UFp4CEjUh65cHIyca/5UV0614oAtvh9qMWmjNd+yi8KF1mMtNtH0lntNVeH0NXm4POgRmHaYWBEkUfcfyHfD2VtqWk2VIgq4njQc7tXovh4WFcr8tBVq3naal20g0GPU29pzDh/QycpTZ6aVKBX4zezSCHftTs4olyoSRdEUG8JHFclbxozZlUWtl95t3pGqHEK+/jVPKlOJHx1A+KGRT0LVnBP1iAghY9sFWIc4H1M7uN3rfjEn28DGbQsvjxcA74bmlPIX6GvF41Pp2oTWIyTltAsu9vBdTXd6CinvcBZVrmTcYASdcz+S5MLqMD4Z8tEycG/OTNSR1gjh1yCFuTvdSbVgIGJiCqR67dtbT5/wW0ZBu+vAT07LmVnYcTSGYmM6H7kyBq7Fvo/7jlnMa6KWzjMTfS9so8GGVw71mpWFWJe0xsv2bL7HDphglWnQ+MYXUk0NkDZ50BF0nixGr0zjqj3i+qQGx7TdB8Nfg5S9kECyfcgfKSPxtGdIBD0ag+cwrsdxvhvV04SKLKB4ChizoOmkMywxbhVzdbzYLl11MhQgG1edYXNmCn4eNT9C9P1JMqfgjN9E12KzZwnVL3luMso2GMfyc68HU1eHYFlVW+9yfbtavDAVV2ywh1xlsHTLcaySOzDZzxBgpq5JyZVralQtb2kI0oGQkvVy9QF1pGlFB15exf8gEA4sFHatjiTXKKGbAdQeJ5NIFYWvirAyGQk8wAs2xLQH325BjBF1f6ozdAaug6+BxdKUUdJ0CalTaDCAR91tMOBkjB28b4siwxAw+xoizWos1R8hmRBgNMYb1gt044dgWa3HGC3FsTX1ZEH5/EGVLjODkzJAJV1qaIZFotpMSi464LGVVYquapT3DxXSbNePiVXoZOTaq5Sl5zKDrnhRGaCXJybPKYlKxNFIsFI2+jf5+hL6TxnJ6seQsCkzH72YXoF1ZGI/AP35G+nOAnbmKPngxc+kkdG6qResuXU8UszswcDVG4PbQYAZdxx5lpoOu44xYSwvBa7QPLyqn8RQY9pFcBeweo/ejB25Hg4O3TQvMcWP78yRBpZDfiDBi+j9WN9lMxx4pXF1mUXhoHR7R8UgrVu6jLt+DqY9FdyUNjky40tLjvnHjuZVaHFkEjtNlFg3DLRcO7B40gw26ToqncaqHXgJtOGwRC+xWq5hEnV/Pu1Fcaom5NaNhy1nk5ViWATWMH/TL6aXXtP92Tu6HGpXe80e02YRelOBzwhzN6AzIzwxDE3SdFMELuMhfb0QsU2LpBOIS7MQBLY68GRZGwS7DBTio4xWEFBFhpDBu7p6aqXAfAJ5GXl+DfdShx7f+NOFFdq8NtONlFWyt440KfHhk0MPKh4qAMXR2QumgMi8bo8icw7CbUMMeMqtLbH2rGtk2dXXsIdvNa7TIdKzXsG5zShY5NXR9CDNdd7e2oc9bi3rLkHUeAj/Texqt0dxq80txO71cvZJKB23ET4VyFgXYMlGgEj+aorC3P90uxJfQtu80UL4MdQt1lYqpWoYKEoUtEW41fT0QZfdk6uHBQslkVMYNujaHzw9VpusAuvl4SmZYYoJ4eP4MjAkex7vJutVoO2oovwUjF1OUmCRByBNyUBhZ8hJF5B9akKKwYWvJEeosR6PO3DaVTE0RwtaOTe2IjDMKBRYb+Yn4Pu/fv8bS8RvxRh7L8PNQzh8qPJTfFmMTJc/PUPLKsXN0G01xmHgIDqztQI15XqrUo7j9BUf+JiMAt8XvEmdkawsSmYs4PYB9vUfQmsKotArcMZ6ecNMRdG3N8ryqFmyDKar9sc74bEneeHI1tmxqA0LvtaGunERRjADstZPH0kGewJtJZx5nF+sMFXAdEn79R7GlA/Cx65V+g+jYnlRqCyOJpXHcjbXc8XJySn3e/7pRnbeC0xdsO42Kpfq9DST+0IYtrikNNqClXffWBcXqt5NJ1CizuEHX7sPnU0HF5ejRVnM4jwG1WSUnfHSOvtIz1FtjgipxPPos9bGgbb0LM7+RUeZUB1TckUxpIuQzN1RPuTMiR2iBdwQ+/WQAX3z+N10jCKmzdvUDuH/CBbz507YYw/ZzFA5Cng20cn4fXZV18JQs35uMqzvfyO8pWThhKFtZ/S0ZTnhq5Pfh4GZbRmYHLGZ4qHxKoiSPePetFbjr3hf1km4XJe7iw/mbYrVxXDgQfR7HXO3G7/5f+3EIQjREGAmZR3fM3jNtmLOREw3mC2xNWQJf/xEsTnW+sIzjxS/Xzsd0nMCvnsnvCXzZesoDFZz5qdKN0bGz5SSc+ycSQzwVdO4e5Miw3McpjIaLbDkOIfsRYSQMDfNrcUBPJFt3PcyZliXktbVOY2RF9wAD7di0zOJ6FrICEUZCriHB18LQsKcNv2oPwFtZkuIs70LSqHnqAjj6H/krihiV44pTMogoEgQhDYgwEoaMV5r3YE6eu3Oyiq5TqPvpHvywSy8LgiAIcRFhJAiCIAiCoJEYI0EQBCFjcGxPtiAxRkIiiDASBEEQhh0RUEK2IMJIEARBGHaSHzWWWD6pROCEmD4YyTFl9JogwkgQBEEYdgxB0oyKeQtQGXUutgC69pqZt+MLoxtvGY9Jd03B+FtvwY03UMXnf0H/hQ60d5zFp58b6zAijAQrEnwtCIIgZBXBzt3GjP4RJYnpSLzVmHnvN+C5cgz7dxif3/nWEVy46RuY963pGPUlvZ4gOMhpYdQ0y5jT7HdThmBW/ATgRHO7dsaewPR65uGG+Tiwtir/8xgVTsfvMjjXXtrh5Jv/VjvIiX4Jnh7FnGtw8XQs19XM8ikPUH2qcxnmAjxZ64NYMm2cXo5CCc89tgAVUS0iQnr4Ksq+PgU3nzuKI10fhaxDX/ylFx++cwgffj4e1RO9RqUgOBCLEZNrHVkuQp3vD3xefHgw//MYLS8dN6Sz7Q+aPSdxNDgW9w9KtFbgN7NHw3/wVSx+7Qj8hVWoM39P9PtqtM7On4+oCWPjzbavJ58dstn2r2duwk03AR9f/UgvW/h7Lz6+Rl9ZoQgjwZ2cFkYbDvFN+FX8w/HIubavJ6wz7EfOJJ8F8FxpejqQvJ7EVFGBOhIBg5tt/1HU/quefb7xUV3n5CnU6RnqjWKZfd+CdSZ7VX70lH7HSgA/fKYNH3om4werx+q6JCm8FcUYQK+a7aUXvf1AcSFbcovw7KwqeM4eSWoGfhsLm/XxN1PrulPxI8s5UonebplhTPUUeOLOtl+NypJBzrbPk6LqWfOjWp1C65hlBsbot6yEZ+A3ypzK3BQKofOYV41wk3yGzz4Dbh15m162cEMxbh0BBPtlaiLBHbEY5Thq4ky0GFMicNnYjmBZfVaJo7ULJ8MbPIH/vB7mSCstRxkJhK5zqYl1Q8isBPa1IeoWJm1E44ZlqOjZiuebalVp7fFi5iq7OGKx0FgLHN5krPP8Jtpm+bIo4ugCHtl5AZhQi5fn66pk6P+Y5FABilXfWkyiiORRfx+WT7kHvsLLaE1pkl0t/mrepfPTVREYIrKu/DRadVs8v+00imp/PITiaBzGkuAJnr8QcxZ9T8l46rjP40JKI6hMVx3Q1Rnjd8SuunlTgFCMzm50BY0g5bA4MrblKzmPdjN2553zpKcW5KQ44hn41Tns7bS0/1/g//NxfFo6HTMqb8PNOp7oxi+PQOm0Wbj9S2fReVqEkeBOTgojM7bILG4uMBXToOIcKvAby7rWeKTQdhbTEy0tl80Or8cldddaE160WHC2rmvQ9Rae3BzTymNagZyfddY/t5LE0EqLg+L1Ndjnp9eymuyIdVLzdcHdhfbQOmzd+Xuse8hsL/7fYgHbug7WszdiuPR7XKKIP+d6ru1PJLpe4hTh2ZrRwNkP8JN+XZUMC5vROOkktjR9C21ndJ0LFXW1KAq0YcsvntY1QPcvfo7DARJHdVr0kHiaWU7122hbJ40qnFyNLSQaUH6fq3XJcKkBt89OxaXWjdaOAf0bmoEyZSEyrGepudBY8CwDtpHQsZxnBAsfxExvgMRfAx2BZlcDtrQFSBw9GGlhUtdc9GsnFTyVk0l0nEdXzFn0x6Gy2otg54kYM/JHZ8y0BSg5T2KHOv8BXRcJCZ5qdtUdsczoH0D33iO0T9q/KXpKJqOS3X6qXsOfIcHlqeZzIZTVia1SLKrYImNYqNytM9wGC0KWJ1XixVoNBYFOHH7rPQRHTcU9i43jWnTfLJR91oGDe47iimVUmiBYyUlhZLrQFu84FfMJDYVVeHz5Hejdodc/eBmemiUhwePcjhEfES6pmf7LUL+zHtiuLTjb/fD4GlWHb6I65CXFOLZRr7OoBX6Hlee5lS/gGN0BPb66sMAhMVVfRk+m7S9g2ZrcmC7z4amldLu+gD/HcKFVPTYXVzfy+Xro/98bFjBqNxRU4m7dbtxmq3ywtNkibOqdixefNN43YVG1yteLFr0OW9Dge9whehqwbiuvZ9/ey6izfU9JU/g1VBbSdXQmFesIQR368z9bHd1SpHgKVSR4+k7ut6+nBAK9lt+lxEDR9Ekk007j1C71robExtyJ9OpF9XQ3a0oAB7lD9ZRidqWuSoLXjr8R/v0c6qYHDxJIKcdavYS2n9Wi1Xb8kVTU0PkETqLbFH+KpzCzlhtjIqoWGjUmDbMqjQ49bQ8OXowZR/u6eC624CkpJcERwMWLqVkp2CoSFjtRUHFOka46Q7jR67ix6txVnFOE288Qbqb1y6Rk2mQE9rLVyUv/LwgNaYdnPMZoZcSiaE41SGhpyw2VA/2T4bNsJ1nYemUTWtZyTzVu1uvF44tPzuL4wZ3Y2aKPbft2HHyvB/2SiUaIQd670vwH3wg/vZ/rARtTjNiHzOEnUbRivV5Y30H7pA5/ltkxN6He5yFxswVrXtdV9Dy9goVA2VxLx9yMNctIMLHQUoKpCS8uIVXkb4kjihpQMpJeBnrVuSZOEZ5dbLeY2YpjlFFieKmDpZvtmXMxZnf3wHN1X6gtPAUkakIWMA9Gcj9OlBXTXXigC2+H2syYVT3UzsxD6zCXm2j7Sjynq9iC9nJ70CEw6zC1IEii6DuW74C3t9K2nCxDEnQ9aTyK6aX38kvGMqHcb0uBVrYG4TYUTaJrfBS1e+Aqeo1VCHZL/RjVJ7fiMPWvRaNu1/V2Xjl2jrpvL0aO1xWpUroAdeMH0H7o6CBireLxKIpUY5wNi0TtZsS2rcqCVDzaLgCbD3UZD1P+jvA1MhiyKejaM4J+MQEELPtgC8+ccWfRzu43er+AvlsPC5pgMPxQqaxDnA/IsCAVeFggMbRuMHzMHjrPdhZFCi+8WhgVcBCzQ2gFu3anmHSRLVxhgeVa9nfiU722K2OmuwuqKGUwAk7IT/JcGF3GB5nspFzxo8PaWTt5soakThCnDjnEzeleqg0LAQNTMNVj1856+pzfIhrcaVjXSJ0+3ZhOvU3SKhn68BPTsuZWdqTSwdH50M0zcDV2b+A/bjmnKILO30vbKPBhlcO9ZsWwBkS2f/MllgfFKNGi84kppJ4cImvwpCPoOlmM+JrGUX/E800WV5ITFbx8Hz7aVIstWz7UlVHoCuIqvYxkYZUyhksx2LE/NZdiiiiBuGokDnPMVTRLEwnlZWwhjPM7SpQhC7pOGsMFVtkf2/2mXGDzRqCLBIebkLEdc/Ca63YGOIjZMwVzHO61YePS0Ugxtfc43V/ZfeiopzLYrNlC/iHB10NMwxh+xPVg6upwbIsqq33uN5X1K9GilYLNEuKC4W6ircS1KuUebB0y3Gskjsw2c8SJKKuScmVa2pULW9pCaIva1QtJCsc4qKDry9g/ZCMkTQvQz2PG4BSb1iSOW7K5mzKHGXDNbWGNB8xkOgwVaK7is2IIxLRjuJ0udVqDfiNRQdfB4+gaqg44ZAGK7X4zrUkHtllijVKArUOGe43EkWmJGXSMkSHsxJojDAcijIYYw3rBbpxwbIu12FxDBIud+rIg/P4gypYYwcmuPLnZEEUD7diU0tNwJlxpaYZEotlOSiw64rKUVYmtapb2DBfTbdaMi8okMjaq5Sl5zKDrnszn6Tl5VrnHKpYagclbtlhcaqN5aPJH6CMB1HuFOkRvLeoixMLtuM0L9F2JYzlKFUvOIv+UB1BXeAovsMXx4GWUzU53gseX0MeNUb4Mddhqj89ycTmmGzPoOvYoMx10HWfEWloIXqN9eFE5bTwu7rVbQgx3F1t8AuxFU6PXVLyQdSSXx4MCehkIRhdTUblI27JaYHh0XDYEYAtCCogwYtRQ48zHHilcXWZReGgdHtHxSCtW7qMu34Opj7m4kniEG1tFWBQtW5OiJSQTrrQg2IvmZX9amuHReEocWQSO02UWDcMtFw7sHjSDDbpOiqdxioeuB9pw2BFYXTGJOr+ed5UI6jt6UomE7n2OYO6FHJwdQOfRKIKhkq5NernKwippSCBachaVjaBuln5b6roJcKddgBJqp3TS3cFxVQEcbrVbzdyDzxlzBORgM9QPTdB1UgQv4CKrnIhYJns6AcM9FhkXNbh0AmE4UFyJIxJa6f/lWzHSDYgrTEg3IowURkI6T83UND/RuqCH08e0/ijoBs7uNRI7Lyu3mI43KvDhEesIq7SIokyhRzlNKB3kdBM8iszZkTWhhj1kVpfY+lY1sm3q6tidXvMaLTId6zWs25zSqLSmO0gMDGGm6+7WNvR5a1FvydNT8aMfY6b3NFpNt9rJ1ThMAqpiqSUpIgcmL52IvrbNUd1qxijCAK6e1RXJUDrVlrPIf21AJX5kS6MKTMcALqY75mjXH4w0BY0bSQhpOO1BrRfd21zcairGjynD3MGkZzCHvMcMujaHzw9VpusAuvl42BoUckFxzqIZGBM8jndNtxodD48yq5xmiQmiz8yp9pKoSdatprevlwz0yDZrgLcg5BA5OLs+5yWaoW9uTuim/JqRM4XzGD1eMxBaNjA+W9yx3SVbduR2efh+MkP2jRgfHipujQXiJ9R6FDuG2IfigayExA0LgcdVELVthBuhEjrSQRpD9hFazxV/S9qCTFOGs15/bzKu7nwjMus155Qh8derzlGfM3QbaMEXPn+jHa3fT7S0BWYb2Yhoi3Abm6SWBiHWNZUkLFxW1YY7eBucq8cSJxSxLic4jBQCHHtTV64XiL62n9vcb3a8+OXa+Zje14Y5Gy/ougThaXUWVwG2dmD37BISS/z/ANp3WEaIJoDz2G1wcstQbBUHobMw1ItE97ZoAdiW730Qvw+Oz/F5juOALamgA471mTcFAzFmf08UY0i85QStkOixHYfTjeV8X8GCxj6LfcjSw9iOXa8LvR29/fD6zgSStMvO3fHTCziwz2pvbDPWzPlJoc6HXYzuk9Cq71Nm1xc0OSiMhFxj7eoHcP+EC3jzp20xhu3nKDxx6mw4BHiOwpPJLvLg6H/swQ+7dF0eYj6UOB86EiexTluJGQ5ujiWehBBuwshuiYqCq/BLDhFGghURRkLm0VYj75kULBFZjbaI9B9RCQ1zm7F4+d9qcXvefUdOtOVxEK5nw3oTQHvM0VxGx16QguXkeiVbBIkII0GEkTA0KGuEMZFs3fUwZ1pOoV1oOIFfPeMydUteEHah5VLm+OsJEUZCtiDB18LQsKcNv2oPwFtZksI8XEJGmT8J0z0X8GbeiiKGM8kbqRtEFAmCEAsRRsKQ8UrzHszJ6843RyHROicf478EQRBSQISRIAiCIAiCRmKMBEEQhGGHY3uyBYkxur4RYSQIgiBcl4gYE9wQYSQIgiBclyQ/Ai19iScld1L2IsJIEARBuC4xBElzRBZwOwF0hTJmxxdGN94yHpPumoLxt96CG2+gis//gv4LHWjvOItPPzfWYUQYZS8SfC0IgiBc9/A0Jtu3/cGluE8j4oq3GjPv/QY8V45h/w7j8zvfOoILN30D8741HaO+pNcTspqcFkZNs76LHcu/i99NGYJZ8ROApxoY/Kzd+cvDDfNxYG1V/ucx4nnD6Lr8Talezgs4CeQDaG3w6uVU4Wzhxu+Wi72NeN657Pk9DydsTVgyzzLJqxs8/9fSBy0TxgrDy1dR9vUpuPncURzp+ihkHfriL7348J1D+PDz8aieONjfjzAUiMWIycuOLMuYX4sf+Lz48GD+5zFSM8kP4Wz7Q0MAPzx4AV7ffLw8X1elwPIp98CHU3jhtVfxQscAymqmq9n3maZZM1BG7bZlsJPx5jzG7PSXOmPP/+UpGQ9P8Di60jHJqpAGbsJNNwEfX/1IL1v4ey8+vkbfWaEIo1wgp4XRhkOvYjHdYAc9q3kOY1ipdtrL5ib9bpbAc6Xp6UAiZtjPOypQV1OA4Jn/wWu6Jnl4tvg2fH9DGxobH9V1Tp5CHb3P6xjlT6idpN+yUNT4J8s6VH70lH7HDs9kb13Pdb86e/nti+bjl5W6LknKRhQA/R+rtnmtf4AeSkagjN8oXYC68QNoP3Q0xXZLX5sNN57KyRiD87gQU/CMQ2W1F8HzFwYxeSrPmv8glix9EHMqo3XYHFNjrGOUBahwMWPx/HHhdahYZ/e3oCxhlvWi7ze7CZ2Hzar3GT77DLh15G162cINxbh1BBDsl+mQcgGxGOU4zWu+o6Y5CJWN7QiW1WeVOFq7cDK8wRP4z+thjrTScuroB9B1LjWxbgiZlcC+NkTdwqSNaNywDBU9W/F8U60qrT1ezFxl7+hZ7DTWAoc3Ges8v4m2Wb7MIY4MQVFXfhqtelvPbzuNotofuwqMV5qP4mjQi+kNqblE/ddYDN2qrETLC1kkXYOfXWizRyPYsR8/6TfWS4Z0ttnw48WYcSQWLp6LMUEtUVJK4imAixdT+00ZQmYG0Hk8urBSrroZGHPxSCjepv2iF5Xz7OKIRcKcaqBrr47J2UvbLJnhEEeGCPOVnEe73hYHHXuqF+SkOLr0jnmuVqveX+D/83F8WjodMypvw806nujGL49A6bRZuP1LZ9F5WoRRLpCTwsiMLXKPUzBYPuUB7FjMZnojbsFc1xq/ENrO4iql+stmh9fjkrprjWfwDltwtq5r0PUWntwc08rzxGb3z0arD/H6Guzz0+vIsYiyxtBSWYV7J8DdhfbQOmzd+Xuse8hsL/4/fI67tq6znUOEdSyK+HOuF62tEl0vcYrwbM1o4OwHKXXwWNiMxkknsaXpW2g7o+tcqKirRVGgDVt+8bSuAbp/8XMcDlBHX6dFDwmBmeVUv422ddKowsnV2EKiB+X3hcXAwgcx0xsg8dSAbl2FXQ3Y0hYgcfQg/XqcGC41eCbj/hRcaq8d/wD+wio8Tr+vx2ugLESYckfqLrR0tpkF4xo0rschpWQyKj0BdHWe1xVukMioJtFx8UTiQcFWSLTMGXcWB+IEFY+pnqJcdQdIwJhcemc3ukgYV/L+GRJPlez2o/rQtoKdxmfoXEICyjyvvUfCgo8E14HOAG2CLWQEiykWYjp2Sv1vsWo5rVCJWqmGlEAnDr/1HoKjpuKexcZxLbpvFso+68DBPUdxxTIqTcheclIYmS60xTtOxTYjqxvwHejdodc/eBmemiUhwePcjv+gXtblH1OKESlD/c56YLu24Gz3w+NrtN1gVYe8pBjHNpqWnhb4HVae51a+gGP0cO3x1YWDuUlM1Zfl1uzgD08tpVvbBfw5hgut6rG5uLqRz9dD//8e9WhR7YaCStyt243bbJUPljZbhE29c/Hik8b7JtyhrfL1okWvwxY0+B53iB6eaZ3Xs2/vZdQNriMs/BoqC+k6OhOSGMlBguT5n62ObvVQPIUqEjx9J/fb11MCh17L71Jipmj6JJJpp3Fql3pX8yhq506kVy+qpxvWoIoaWg6cRLcpnhRPYWYtb2wiqhYaNTb2nMOH9HL75LHGclJ04x9Dv7E38BNMR2NNAfwdKbrQ0thmYZpQo/x7dD3OGtrHizHjqHMPnsWlWDc2z1iUkOC4dD6WeIoBW4Bslg43jDinCFedEjj8yhYrOhSOc4pw+2nhRq8lJYY1yP28DHeguS8DEl3TRqBrGwsoen/eDJSc360ElLlPhkWRzUpF5UD/5EEForP1yia0rOWeatys14vHF5+cxfGDO7GzRR/b9u04+F4P+iX7Tc6Q9640/0G6+ZpP7+d6wMaU4sLMjnrxkyhasV4vrO+gfVpvsE2o93lI3GzBmtd1FTZgBQuBsrmWjplnAyfBxEJLCaYmvLiE7tb+ltiiSIsn//41tIVksI8WiijK+pYsXsxmM/mZczEmKPXAc3VfqC08BSRqVm4wFui9kdyPE2XFdDce6MLboTYz3IihdmYeWoe5fO7bV+I5XcUWtJfbgw6BWYepBUESRd+xfAe8vZW25WQZkqDrSeNRTC+9l18ylgnlSloKtLI1CLehaBJd46Oo3QNX0WusQnB8zY9RfXIrDlMfUzTqdqp7FEVqY2fDgkG7nLBtq7IgFY92i9chocvWmSLPIEcY0jU3qwqes0dSfAhJkATbLMwGdPCNgiTBqUND+QCSRUHXHg8K6GUgGHb9KAvNNKBdWZC8vAoKOJg4eA30DKfhmKQFJGaOoItOwgg2NtZFMBg+L+2mwzuGBanAw+sx9Hr+RMiq5MFZvNtlHoPeDmHs1y60gl27U0y6GEC3RWC5lv2d+FSv7cqY6e6CKkqRkYTZTZ4Lo8v4YMhHBvnRYe2snTxZQ1LH5YZ7updqw0LAwBRM9di1s54+57eIBgtWtxyJJ7Yo2QRDQvThJ6Zlza3sSOWJns6HbmSBq7Fu89Rixy3nNNCrxKsTfy9to8CHVQ73mpWGWZW0x8j2b77E8qAYJVp0PjGF1JNDZA2edARdJ4sRH9Q46o94vsniCnOysBnf33AfPtpUiy1b2NbjjhILq0biMMff2CxNkXx4lTorzwiwvEqZ0qnwFV5G66EULWwpkVibPbeSrYh24Zxphi7oOlkMd9acwhMkEiyuMCfKFTYZARIZB0JiJhIlsOaxVcgtSaIjbsoqpiwMcBCzZwrmxEtpMFRcOhoppjjWis7HatUyy2CzZguZRYKvh5iGMfzs6sHU1eHYFlVW+9x/4OtXokUrBZslxAqtY7qDFi56AaeqHqdt5lc+JRVkrtxrJI7MNnPEGCmrknJlWtqVC1vaQjSgZCS9XL2QpEUtDiro+jL2D9kISdMC9HM8b4mbcVJsWkY4BsfmLrOjArVVrE4MgZVWzIDrY9ig02WkbplMlMTabHgwgq6DnWFriSvKnXQeXTGER3oxLUC7VbB0NApMa1K8uCUO1FbxTTEEVgKwdUgdD4sj0xIz6BgjYwSeWHMEEUZDjGG9YDdOOLbFWpyWHo6tqS8Lwu8PomxJIsGgzVjz23baQxlqHPE3scmEKy3NWASgEouOuCxlVWKrmqU9w8V8+m/Gxav0ktbgdDPougcu9rz0cvKsco9VLGV3F1uALO6h0TxM+CP0kQDqvUIdp7cWdRFi53bc5gX6rrDl6CX08cbKl6EOW+2xOi7up3QSzllUjN8srkKviu/bjnZUoTHdCR4TbLNhRQcnxx5lZgZdxxmxlg6CQeUeGzPNmP7CagHyKLdXgFcJWW58EWLHCy89pxjD04112aKkpsCwxje5uOwSxjZajpYjRsIJQmqIMGL6P1Y3zkzHHilcXWZReGgdHtHxSCtW7qMu34Opj0V3JQ2OTLjSgmAvmpf9aWmGXR1KHFkEjtNlFg3DLRcO7B40gw26ToqncaqHXgJtOOwIrK6YRB1Wz7tKBPUdPalETvc+R2DyQg40DqDzqCEOujs4xiaAw612C4p78HaY20dyjMc1FYSdNNacRYW30jc2gF7VL/bhYj/1lSNYkqWTxNrMijlicfAjFRNjSIKuk0K79CJimezpBIIXzyqRExEX5UgnYBxz5Gg79+Dt5OHh80ockdBK/93GipFuQFxh+Y0II0UvevmGXDMV7gPA04geTh/f+tOEF9m9NtCOl1WwtY43KvDhkZg36/DnWpKOM0o3ARzkJ80JpVira1KDR5E5XYN65JDVJba+VY1sm7o6thuxeY0WmY71GtZtTmlUWtMdVUOa6bq7tQ193lrUW/IMVfzox5jpPY1W00V0cjUOkxioWNocHnHFgdVLJ6KvbXPYrbbrD8aQ9caNJIQ0PAS+1ovubdHcamPx9Qn00hdMIYu5YV0L5SxSDyUFKGYjBB3pHeNZb7HATS8JtVmIBtxdZXSvtqD9TGEOeY8TdG0Onx+qTNeXOMeRZwrusuQZGjONJ1slcWC61YKd6njYsmSOGFOB1dPG0VtHwm61iyeMYf7TLDFBnDag2kuiJlm3Gsc8Wfan0CPbosQkCUIy5ODs+pyXaAasUSNhLqP1td3KncF5jB6vGQgtGxifLe7Y7pItO3K7PHw/mdEyxpByHipujQXiHD31KHYMsTfWdTzbkJjZtIxHk7EQeBxTC+gYrCPcCB6Obh2yby5bcX5mWOGs19+bjKs734jMes15jEjE9arj1ecM3QYcUL6kzHIuRjtaTzVa2gK3NuHRfAttgevhNjZJLQ1CrGsqSVi4rKoNCxQbnGvIEicUsS4naIwUMhw7VFeuF4i+tp/bXEkGHJDMIkEvEt3bYgRgz6/FgUUeHP2PPfhhl65LEM4dVjc+/DtVlC7Ajtmjjf/PHsHiZIKxM9BmCn390VURMXox3RhDzwNojxl3Y8zqXtC5O2Zgc0KwcJlHIksv2rHOJE9ErMsWk8jj5Ngha2wOT8gaeZwsaOyz2IcsPYxyhXn1/o3zVcklSYSFh+ebx6bfVx80cN9nbOyz2hvbjDVzflKothuPi9b2tKDaTGbXz0pyUBgJucba1Q/g/gkX8OZP22IM289RVKcOhwDPZ3gy2fmY3teGORsv6Lp8RAvx0MNKpjDEgsrVE6tTV6KBg5sHF7Qs2HETRnZLVBQ48WXcXFCxEWGUvYgwEjKPthp5z+RbZ8oB60vg60/SypHDPNwwHz/wISVrUS5hWnQzbn21WUl0XQTa0hI0OlEhfWSLIBFhlF2IMBKGBuV+MSaSrbse5kzLR/R3+KGbWzRfCLnQeHRjlPQYQt4gwkhwQ4KvhaFBz8zurSwZZLZkYXjw4pezDWGbt6KICaWEEFEkCNcrYjESBEEQrkvEYiS4IRYjQRAEQRAEjViMBEEQhOsSttRkC2Ixyh5EGAmCIAhCGhChlR+IMBIEQRCENJBcrFCCOawSQCXA5PnqdG4liVkaHCKMBEEQBCENsCBZ/P+7GnOG/nC27wSE0f+6DbfXfB1fGzUCN32Jlj//DMHeLhx/rxO9/9dYhRFhlF4k+FoQBEEQ0oll5n9nSXi6kS+Pg2/uHJR93oW2P75pfH7XPnR9Og4zFsxHhfucLkIayGlhxPMu7Vj+XfxuivtMSUONMSN37AlMr2c4a/KBtVX5n8eocDp+R9flb0r18vUEZzn/t/n4ZaVeThmeg874fe9Y/gCeLdTVzPXcvlZ4Lq6l9jnKXOHs2ksXSEeaYxRP9mHMpx049O5Z9P/tc6Py8wAu/fkA/vzRCFRWjzPqhLQjFiNGbrSZZ34tfuDz4sODp1KYkT23WF46bkhn288quk7hrTNeTP9eLdbqqlRomjUDZTyh7GuvovVsAXx3VOh3ivDsrCp46L1kJnjORzwl4xOabX/MOOpAL56IMeWIkI3c9JWb8OmVK/irXg7zGa71BegC8ESZCFgYLDktjDYcelXdOAc9q3m+wLPV79yJXVRefFLXZQNsRdDTgeR11mRFBepqChA88z94TdckD89234bvb2hDY+Ojus7JU6ij93kdo/wJtZP0WxaKGv9kWYfKj57S79jhWfit67nul2ent6zz/Q3NdLaRPLNxD44Gx+L+lK2DRSgpBILXetWS/9oAPbzciuX0//Ip98BXeBmtqc5NFzoH9/ZiEm2z4WUcKqu9CJ6/EHsiU081KkuAS+cHMceatkzFsjpxjMsStY4u09ytGTxxqnW9OZVe/Y6F0P7M4j6xa6L7zHY81eZ52M/zs79+hptHjcJX9HKYmzCiiNotGBzUJLZCdMRilDc0YN1jvqx8gli7cDK8wRP4z+thjrTScpRhAF3nUhPrRqe8EtjXhqhbUJ37MlT0bMXzTbWqtPZ4MXOVvbNnsdNYCxzeZKzz/CbaZvkyR0dviLC68tNo1dt6fttpFNX+2C6OFjbj+6toY20/1/v8OQ4HJpI4cxNHAfyw+QQCnsn43w0uHV9c+nCxnzqMEcVqqWxEAdD/MV4rnI5GEp3+g7uxQb2TDFpsNlJ7tEW/DhNrsyygpJQ60QAuXoz9m1JWJZzHhUTjWmxwcDALDqCrM/p+WOzMqaZ19uo4mr3HEVST41qFirEtX8l5tJvxNu+cV6LAJo74c/OmAJ27dUzObnQFI2e9T2yfuUEwdK5HcEnXMb0n2nHp5hrMums8Cr/MkdfEl25B8ZQ5+Ppt1+g7kQmFM0VOCiMztsgsbi6w5VMewI7F0+kp0xqrYI9HCm1ncZUSFGWzw+txSd211oQXteWGy9Z1DbreAk9WaVln1+Ym/YbBE5vdPxutHk/WYWpBEMe2t2fXU0RlFe6dAHcXmrJw/R7rHjLbi/8Pn+OuretI7oUxYrj0e1wcbWbiXM+1/YlE10ucIjxbMxo4+wF+Qh170pD4aJx0EluavoW2M7rOhYq6WhQF2rDlF0/rGqD7FyxUSBzV6Q6cxNPMcqrfRts6aVTh5GpsIdGD8vvCAmrhg5jpDZAQaEDIBrOrAVtIPBTVPqhFD4mKuRMBEmJbtrykaoCX0PazrfSZiZjpZl1SLjXqDn2TUnKpbfjgFILjZ6jfYd14w0LUdEfqLrSKH/0Y1SdJ1P1sNQw7lAuJtlkIehjZytfOUMcVksjg+JK47jFtVeo8YetwE2XMNGPE1Pa9nST1o2BapN7ZHT6WYCcOkOhByeSwhYn+r/QESMhYOv+LR3CABJenerIWPeZ5UX1olFYA3eozdC6mgEpkn8rqxBYuFlVsjTGsXSGL1bxq+0NkglaqIeVvJCL3HYD/S5Wove9+47gWzscUzxW8s2ePuEYzSE4KI9OFtngH3Tx1nSuFVXh8+R3o3aHXP3gZnpolIcHj3I7/oF7WJbUYhjLU76wHtvNElFS2++HxNaoO30R1yEuKcWyjXmdRC/xl9baO/rmVL+AY3Y08vrrwTZfEVH0Z3QPaX8CyNc26kiFhsaSM6rdgDd3Ds4mHp5bS7e4C/hzDhVb12Fxc3cjn66H/f496tKh2Q0El7tbtxm22ygdLmy3Cpt65ES5DFlWrfL1o0ess3NgO+B53iB6jQ3Nu72XU2b6npCn8GioL6To6k6KbhwQJd9yxbU1PoYo6776T++3rKYFDr+V3KTFTNH0SybTTOLVLvavRAoe+kerphpipqKHlwEl0m0JA8RRm1vLGJqJqIb1MugfUv6K7IyzEmKLG+4x90ftuwx+eOXGB/o7F1+cby0nRfxT/EPot7saG0gUkkAbQ/kFqbdv9i1qLqHMn0TYL8dDdqCrgf8pQM5Sua89YlFCvHtc9lqBVKRo8rDxefh13i5QWOPRaUmKIGRXnFDyLS7YbtiHc+HUsB5BHOS9PpSGcPOPGKjGT6D6ZkmmTEdjLVieqJ6HnwxFlqYJnPMaYyohFkc1KxRaoa6gcjPVJBbxbhZal1E/HKL1aXP7vR/jwnT3YvV0f1/ZtOHCkA1c+1e8LGSHvXWn+g2+En97P9YC6WxQXZnYUm59E0Yr1emF9B+2TOvxZZsfchHqfxxAxr+sqbMAKFgJlcy0dczPWLCPBxEJLCSZD/MDf4hBFLAbqUTbQjpcd9clRhGcX2y1mtqKsb8nixWx+yjtzDs/omkg88FzdF2oLTwGJmpWmo8SDkdwnEWXFdBcb6MLboTajFlrznXA7Mw+tw1xuou2WmdFfX4OX24MOgamtaxu/Y/kOeHsrbcvJMiRB15PGgx1MvZfDnbxyvy0FWtmygdtIqNA1PoraPXDVYh3hmCS2mmzFYerrikbdTnWPokht7GxYZGk3HbaxNYi2M5rEwISRdHUE8JHFiqVcTpNOopXdUt6R6pgi2HMOH9LLSD6WQVGB38wejWDH/tQscQmSWJtZeP1tnFKmFD86rNdhhsmmoOuCQmqz4DWLRYktNGxpOkJihI6V36f7gIdFiDUmRlloZgDvGBakAg+t5xlBv/gAApbjVS6zcWfRzq48ep91aGL7ZGi/wfD5ezwBtLMoUnjhDQkjY782AWlaoFKABWVIYLmVlqO4otd15ZZqzHYTVFGKa5yWMCjyXBhdxgeZ7KRciXOTfLKGpE4Qpw45RMzpXqoNCwEDUzDVY9dOEj+07bBo0JhiYP8aklKDoQ8/MS1rbmXH0RSCiel86OYTuGq507ngP245p4FeOstI/L20jQIfVjnca1YaZlXSHiPbv/kSd3XFKNGi84kp1GAOkTV40hF0nSxG3EzjqD/i+SaLK8wJxwdtuA8fbWKrCUsVd5TAWjUSh5tq0Wqzmlgxgr5nXonjllIEwV+9ly+CQbB8yh0oI8G5ZSgHWSTUZvzwwtZGixDPOEMYdJ0sykrCFprYliYVND1vBLpIJETP6WO4wCr747jy4uzTdv42MWWB6oMklCrnZUlKg086cdAppnT8kZvoimfVE5JHgq+HmIYx/GztwdTV4dgWVVZHCZxevxItWinYLCEKHXDtb7FbTvIQtg4Z7jUSR2abOWKMlFVJuTIt7cqFLW0hGlAykl6uXhikkHSggq4vY/+Qdd6mNYMEiiXWyEmxaU3iuCWbu8yOaQHaEktgTTCtSfHdUmnDDLjuIGFeuiBswZzlNh4uPSTaZsOCco+dR1ciLq4ErErpooDFzjSgfZsl7scF0wJ0wBFobCNkTYrd6Se6z7iwdUgdD4sj0xIz2BgjI9hcrDm5iQijIcawXrAbJxzbYi1OgcOxNfVlQfj9QZQtMYKTTRrWNWJqgYsVKSUy4UpLMyQSzXZSYtERl6WsSmxVs7RnuJhus2ZcvEovI8dGtTwljxl03ZPCaKkkOXlWWWkqlkYKlKLRt9Hfj9BHnXnvFepQvLWoixA7t+M2ulf3XWEryEvo442VL0Mdttrjm6wuuzNXqd6LmUsnoXOT3ZoU6X5KJ5acRYHp+N3sArQrq+YR+MfPSHvescTabDgxg5PPRRcVigStSmlgoJ/azDMFvgixY7iqgvw+AuxFU9YdFeOjp61QeDzKPTYQpPVMy8208bi4125NsrrPEttnsthHyxkWqywIwBaGBRFGTP/H6sae6dgjhavLLAoPrcMjOh5pxcp91OV7MPUx05XUgLurXCwk2vJUtsRYTjyfUSZcaelxpbjx3EotjiwCx+kyi4bhlgsHdg+awQZdJ8XTONVDL4E2HHYECVdMos6j513VofcdPalETvc+RzD3Qg7ODqDzqCGoujs4LimAw62OwGprIPLJ/VCjtXv+6LCgRAkED5GYKzUatpxFXo4DGVDD+EnCoJde0/17TbTNrJgjKIckb9gQBV0nQ/DiWSVyLnVaxA7jOAbjmAMRQ8xtgdTBC7jIG4mIizKCs02hl+g+U4an81DiSMdGZQwecSeusGxEhJHCuNF6aqbCfQB4Gnl9DfZRh+60/kTShBdZ5ISCqnW8UYEPj6gRVmZ8g6NsNIbrcwA4Lw+viy2Ag/yjn1A6qCzIymW41Tkkugk17CGzusTWt6qRbVNXxx4+3bxGi0zHeg3rNqc0Kk0NIx/CTNfdrW3o89ai3jJMnoejz/SeRqvpVju5GodJQFUsteQZ4sDqpRPR17Y5LHB2/cEY5t+4kYSQhtMG1HrRvc20mryEtn08ZH0Z6niUmoLjm5ahggRaSzS32vxScLjyVbbEJI0RsxXKWRRga0KBSvxoCtHefnc5ljKJtlkIfQ0SZfdEj31LF2OqpyTgHjOtSkOU6TrYqY5nzDSLdYVdYdPG0VtHwsdAx8MjwyqnWYbJl8zAnGovLukAbCUUWDixZYlHqSnYJUXbpvN+1xQQie4zQTjmyTmtigpcp+NRli7huiMHZ9fnvEQzYI0aCUNPlzy0l/7jPEaP1wyElg2MzxZ3bHfJlh25XR6+n8yQfWNIOQ8Vt8YCcY6eehQ7htgb6zoeR0gEbVrGQdQsBB7H1AJD4FjFDT+hug/Z13BuIBJUvY7PDRuc9fp7k3F15xuRWa9tx6rPGboNOM/TkjLL+RvtaP1+orWB2UY2/C1YaHM5htvYJGqbxiTWNZUk3Amvqg0LFBuca8gS8xKxLidojIwP4tihunK9QPS1/dwlPohFDgsrvUh0b3MJwOaAZBIJITiXUoz0AmtXP4D7i07gV88kOw0Mu3WXwIdTeMFiqTR+08YXFkyyvTmwnMWeK47zSKzNDMK/Y3bhZjII23DtFHTGmImdYYEwbwoGQjO4p46asV0Np3eBhIo5kzvDsUNWccFJCyOPk0XOAlRabnvhmeYtcEC1dai8Y18mMfdpawe9X+jt6O1b9+3cVrR9xiM8q72xz5gz5yeF8f1z3JXb96q+K5ldP23koDAScg3VQU64gDd/2hZj2H6OwgHBs+EQ4EJMQZxPaHHPAyDswjvNqM6cA41jBC0Tzg5SGFqcwsgqAqPD8U2xv9d4iDBKLyKMhMyjO0nvmTbM2chJ//IFbdnoP4LFqc7dlZd48cu18zEdqViLcgvDOhmZEyu96E42aMa+RCNBq5KQMbJFkIgwGhwijIShYX4tDuiJZOuuhznTrmPy2kKoCbnQQu5vQRBhlC9I8LUwNOxpw6/aA/BWlqQ447qQE6i58QI4+h/5K4oYlVeLBzuIKBKEvEOEkTBkvNK8B3Py3LVy3dN1CnU/3YMfdullQRCEHENcaYIgCIKQBtiFlS2IKy11RBgJgiAIQg4iQiwziDASBEEQhBwk+SDr2PmQkkHlfuIpXt45n3fB3iKMBEEQBCEHMQRJc5ycSQF07TUn2o0vjG68ZTwm3TUF42+9BTfeQBWf/wX9FzrQ3nEWn35urMPkszCS4GtBEARByHE487eaBDeimKIoAbzVmHnvN+C5cgz7dxif3/nWEVy46RuY963pGPUlvV6ek9PCqGmWMfP776YMweSvCcC5TXbtjD1P1/XMww3zcWBtVf4P1y+cjt/RdZnu2d/zCc51dGD1WL2UOjxNCN8DVJkVmuFMoe4Pi6djuV4WYsFJJB+0T8XhBk+1sdQxfYaQJ3wVZV+fgpvPHcWRro9C1qEv/tKLD985hA8/H4/qiV6jMs8RixEjHVnmmV+LH/i8+PBg/g/XX146bkgnlc1Fntl1AoEJtWhtGMSNln63jTVA+45XsXjHKQTH34FneZJZpnQB6sYPoP1QeK41IQZq5v7I2e+dqNnw405kK+QmN+Gmm4CPr36kly38vRcfX6Pvv/D6EEYSY8SwMFpchd4kJ4114j6JbGZxnYyWyaaMvHpKEFwXWa/TMalseFLX6BOYPoW6DctobyaOSWY1EZOn9mzF8+YM/BYSmjg1wYlrE92nmQ39w1TnU7PNU2e0O9RvePDfQag9oh07kcxks9mOihfxxJs4NR1TjoTnEHOfaJbQE8CG72ruc4lFTHJ70W3KFOOYQ7Pw2+JtLCS4z5gT1w4D1hijxCasdbSHbbLcr6Js9hJUDhzC7vccZ35DMSbNn4vbzoT3ITFGQpbDM3svMjLxmiWLMvKuXTgZ3uAJ/Of1MBVIaTnKMICuc6l1yCwqvr9hJbCvLeqs9UqgsCjiTrupVpXWHi9mrvoTaifpdQjuuBtrQYLJWOf5TbTN8mX4/o+e0mswLMK4g2eRo9fbdhpFtT9GY+Ojeh2CZ9YnUQTq/I19/hyHAxNJnNFNWa/CJLZPzZ42vHkGuH1RLdbqqqQIXKMbegFK2EpUeCuKqd176RJrmjUDZf2nsCUVUcTnuaENVR1bIwRfmATbLGcYh7HU2QfPX4g98WxJKXWoAVy8mNrvmIXMEg787TwefT88WS4JFITiZXajK+gUN0anPKcaJHJ0HM1e2qZzVn7l9qPPsWDS8TY8034liYgK67NkQvs0XI2+EhZMep8kCDzVJM4qLeIsR7j0jj4HmxD+C/x/Po5PS6djRuVtuFnHE9345REonTYLt3/pLDpPXwf3cCInhZEZW2QWNxeYij1Q8QX89Bhe1xqPFNrO4ir1pFA2O7wel9Rda014cedO7NJl67oGXW/hyc2h91XZ3KTfMODJKd0+G60+a1FTRMDdhcYzk+/8PdY9ZLYX/x8+x11b18F6lkYMl36Pi6PNTJzrRWurRNdLnCI8WzMaOPsBftKvq5KBOuXGSSexpelbaCPBEI2KuloUBdqwxWLJ6P4FCxUSR3VagJB4mllO9dssVqSTq7GFOnCU3xcWUAsfxEwvW5sslp9dDdjSFqCO/kEtekgIzJ2orCdhi8hLaPsZi4eJmGmKgUT3aUG51DAW96biUus/iv1nC+BbbPyG0bEfP8F03JOqC40F51IosdO6S9e5kVCbWdC/9Wz9zXoqJ5MAOI+umNYGEgbVJDounkg8kNcKiQ81+3vMQGBzH0cslo8Auvey5WYcKk0BQoKnkoTcpXcs2wp24gBbi0omh0TPmOopyu2n6jX8ma4giSPejyLBfdJ2K9nVqOo1/JnOAB0Otx+hhBiLLhZVD5IINAQYi7glvDyv2mKRMoWifo9LvPiuoSDQicNvvYfgqKm4Z7FxXIvum4WyzzpwcM9RXLGMSstnclIYbTj0Kha/puMKdJ0rhVV4fPkd6OUYBF7/4GV4apaEBI9zO/6DelmX1NxqZajfWQ9s15ab7X54fI2qwzdRHfKSYhzbaFp4WuAvq7d19M+tfAHHBujH46sLB3PTDba+jO4B7S9g2ZrcmKHp4amldOu5gD/HcJVUPTYXVzfy+Xro/9+jHi2q3VBQibt1uxkuQ1jabBE29c7Fi08a75uwqDLcmXq9je2A73FHp9SAdVt5Pfv2Xkad7XtKmsKvobKQrqMzKc60T53r8z9bHd1SpHgKVSQ++k7ut6+nOmt6Lb9LdcxF0yeRTDuNU7YOXgsc+kaqpxtipqKGlgMn0W1zwT2FmcoVNhFVC+ll0j1gj0V3h92lVNR4n7Evep8fNxLdp42ui+ikH1+qc+iFfsNU/uE48OwseshJVZiyiHNxDTpJqM0sPDGFfrSEp+pum9DPDrwYM46O++K5CLeRDRWDRMLifOwYpKiw1Samm46Isg9DuNHruLFKWKg4JxJyF2xxTlrg0GtJCX8PUaxgSuDwK1u/iAT3OWYcbTt4FpdsGyPhpFx5xr5MSqZNRmCvIcBKpi0IuZvgGY8xvDHCcANaLF5UDvRPHlRQO1uvbELLWu6pxs16vXh88clZHD+4Eztb9LFt346D7/Wg/zrK3pP3rjT/wTfCN8lzPaDuFsWFmR3F5idRtGK9XljfQfukDn+WeUtsQr3PQ+JmC9a8rquwAStYCJTNtXTMzVizjAQTCy0lmJrw4hK6wfpbXEQRi7Gw5cNpaUmMIjzLT94Wi5mtpDS6x4vZ/MR15lyMCUU98FzdF2oLTwGJmpUbjAV6byT3qURZMd1RBrrwdqjNjIk8Q+3MPLQOc7mJtltivF5fg5fbgw6BWYepBUESRd+xfAe8vZW25WQZkqDrSeNRTC+9l8OxLMr9xpYOtszgNhIqdI2PonYPXEWvsQrBMUk/RvXJrThMD8ZFo26nukdRpDZ2NiyytJsO2wxXUvFoEjMTRtLVEcBHFiuWcplNOonWNtqYd6Q6psT26SSAg/yk7hkBt3eTYfmUe+ArvIzWQykK04RIsM0sPHec7zrUr556O/smnM2moGu6Bjx0PQQs4kO5zMadRXuncY0UUF0BBwAHr4GeGzVsoeEYmyMkRmg1ft/jUesOBOlzGmWhmQa0KwuSl1dJcJ963WAwLLK0mw7vGBakAg/tU0HrBsNWNQ+1rbE/xguvFkbGOdiFVrBrd4pJF9nCFRZYrmV/Jz7Va7syZrq7oIpS8n1UYp4Lo8v4IJOdlCt+dFg7aydP1pCMCeLUIcct8nQv1YaFgIEpmOpJ8NTT5/wW0WAQmuU7VEhMFfiwKum0AX34iWlZcys7UhndQ+dDN4LAVcuv3wX/ccs5DfQq8erE30vb4POKIfoaZlXSHiPbv/kSd9XFKNGiUz3BO0TW4KlAXU0Bgmf+ZwhHQT2qYl0aR/0Rz8eydKi4mfvw0aZabNnyoa6MRAmsVSNxOKYricVOG2Ze+bmyboVFkIME98m8coWvDw/GVhrLqWG0v/8gB2IPHQm12fqV6reZjVZew93ktIQ4MSwjcWOQ0orhjqrs360sTWER5IDjg5ayheYPMQKPjfigOYUnSCREBlSHSWyfSmDNG4EuEhxuQsZmfbIJuDAD/Sy6pmCOw702bFw6GimmOG6LRJfVqmWWwWbNznYk+HqIaRjDj5seTF1tsfBwWe1z/4HQTbVFKwWbJSQqWkyRjKpxuJlyGSUAlXuNRZ9uM0eMkbIqOa1nXNjSFqIBJSPp5eqF9D69q6Dry9if8ki0ZDGtMSRQooyaYopNaxLHLTlGrFkxLUAxXUkTTMsIi53oo68S3Wc6MQOuW89ZLZ8PhIfvZ4CE2iyrMVxAlzrjuLiU2yleDFIaCVljYokduhWYFqCYcUumNYnEjiXWKIIE92lakw7EFFjxYeuQ4V4jcWRaYgYdY2QIO8kxNXhEGA0xhvWC3ThWK0+42FxDBMfW1JcF4fcHUbbECE6Oi7I+UQc1JhmHWiZcaWlGP3lzUWLREZelrEpsVbO0Z7iYbrNmXLxKLyPHpuBujIYZdN2TeWvFybPKSlOxNFKgFI2+jf5+hD4SI71X6OburUVdRMd9O27zAn1X2IrzEvp4Y+XLUIet9vgmq8vuzFWq92Lm0kno3GS3jFjdZ4ntMwNYchaVzVoCX/8RZeV8oQPwzUr3dZtgm+UAZtC1PVbHiRmcHCcGKR0EeZShF5XTxuPiXrtVwuo+M60tvgiBYriqgvx+MKjWHTMtUux4lNsrwKskuE+9bskMI17IGivl4rJLGNtoOVp2jqoThg0RRkz/x+rGnunYI4WryywKD63DIzoeacXKfdTlezD1sfjxQ4ZLycVdF5NMuNKCYC+al/1paea5lVocWQSO02UWDcMtFw7sHjSDDbpOiqdxqodeAm047AhyrphEN/Ked5Ug6Tt6UnXY3fscwdwLOTg7gM6jRufd3cFxSQEcbnUEVlsDqU/uB4dboOePDguQPRA80X06eXgUXx9BXOgylpOjAr+ZPRpBHpHWX6SG7gev8XUAvNZPXWPhCFjthekgoTazokZf7kwx9i9TDFHQdTIEL+AiK46IkW/2QOrgxbPqNcLSZUsnoAVfRFyU47wT3Kdx/pGxWO6B4MnDw+eVOCKhlf67pRUj3UC+u8IGiwgjRS96++marJkK9wHgaeT1NdhHHXp8608TXmT32kA7XlaxCdpFVuDDI7GG/T65WSV8tAd3Dxc6sHZCaWp5akLwKDJnzFQTarjHs7rE1reqkW1TV8eOr2peo0WmY72GdZtTGpXWdEfVkGa67m5tQ5+3FvWWnDkVP+KEkKfRarrVTq7GYRJQFUsteYbUcPSJ6GvbHBY4u/5gDPNv3EiduobTBtR60b3NtPq8hLZ9POR+GepCI644vmkZKkigtZhWq0T3aUMH6NOTeSr2pOVT7rDkLOrDRf4dj2C7DX0vE0bTQ88115i1QZFQm4UxHlQI+u3WZ4t72xx+Hifo2hzyPjSZrgPo5uNhy0zIHcTxQTMwho7hXdPqE+xUx8PWoFCeIXaFTRtHbx0JCZxLnC/JMwV3WfIMjZnGySVJHITcagnuk4STGuY/zRITRJ/hBJOXdAB24ujt6yUDPbLNGuAtDBs5mPnayGrr/hR4WWfBNfIYPV4zEFo2iJURN3K7PHw/mSH7xpByZ+ZrztFTj2LHEHtjXcezQShbNQuBxzG1gI7BOsKN4OHo1iH75nKYyNFWw4rOen3VLbsxP0mT+OtV56jPGboNOPfLkjLL+RvtaD3VaGkLItuE8LdgoS1wPdzGJqmlQYh1TSUJiwhbZmkrjszWEeu6Z6HmOJj42ZlZ5BiZtk26t7kEE3NANYmcEJxLySW9QGL71MS6PuKhMl+PdvxOrb/j8P0gMZzZxO3Y2yTBNlOEr91sSbXBsTJDk+law8LFllnaCgf4WuKEnC4lEihux6nOISRmaDW344zYr3tG68T2yYLGPot9yNLD6H0NqDq9LvR29PbD6xttaxVHqWTRtmecNrYZa+b8pFDnwy5G9xgu1f55mvlapgQRMg5PGHr/hAt486dtMYbt5yi2aSmEZFHXRtEJ/OqZ/J5DzxDr2fLQkmAHqjpzDm4eXKCxkDnchJHdEhWFKGIzGUQYCcJg0FYB75k2zNl4QVfmAxywroN9M5o7J08Z7FxpuYK2jHoirJbDg5FcMBBH8GiLR1AnJxSykmwRJCKMBCEVdCcYuC4mkhXicl1MLBx2oTld4oKQDkQYZQYJvhaGhj1t+FV7IOWpH4T8Qk0sfKYtz0XyBqzQ6SJEFAlC7iDCSBgyXmnegzl5HksiJMYzG9/IM7eqIAj5gggjQRAEQRAEjcQYCYIgCEIOwrE92YIEXwuCIAiCIOQh4koTBEEQBEHQiDASBEEQBEHQiDASBEEQBEHQiDASBEEQBEHQiDASBEEQBEHQiDASBEEQBEHQiDASBEEQBEHQiDASBEEQBEHQiDASBEEQBEHQiDASBEEQBEHQiDASBEEQBEHQiDASBEEQBEHQiDASBEEQBEHQiDASBEEQBEHQiDASBEEQBEHQiDASBEEQBEHQiDASBEEQBEHQiDASBEEQBEHQiDASBEEQBEHQiDASBEEQBEHQiDASBEEQBEHQiDASBEEQBEHQiDASBEEQBEHQiDASBEEQBEHQiDASBEEQBEHQiDASBEEQBEHQiDASBEEQBEHQ5I0wWvDtXfg/j61HhV4OMXo9nvo+vff9F7FAV2WM0L50cTueYeEJ/DMdz1PzGvTy9cPDDfNxYG0VHtbLzBObd2LX1nXI79Zowos7d2Lrujz/zh9ah610ni8+qZfzlIZ1v8eunZvpl5yFVFah9d/m45eVelkQchyxGKWTy0/i6ecX4l+o7Dij64ThY34tfuDz4sODp/CKrhIEIc10ncJbZ7yY/r1arNVVgpDL5L8wComVFditq4ShwLBShaxnqmzFd0frt1OgYt5W+/a+HeP5mZ9iF41FoH0PHtmj64YR44l/p71sbtLv5hOGpcp6nvlrzWnAuq3GOeavZc75ff4e6x7Sb1l4ZuMeHA2Oxf0O66wg5CJiMRIyxHP4d209M8uOMx74GlITR+wq/ac7gfZmvb3mdgQn1EcVR2sXToY3eAL/2RzQNcNL85rvYOGiReGykY6/rD7PxBF3ovXA9vB5bmoPomxJ/okjQ+g2Avvpe9R1eYdyU9ajzN8S+j5b/B5MXe0mjgL4YfMJBDyT8b8bvLpOEHKTnBVGTuvB4gn6DZNk4n2c6zrjkdT7RoeuYpkS2WYcbNvhYuvgtbXFbfs1L6r1/7lGLyeJvd3c4q4a8N3HzPe5OIRMtJitaPUWdh/iTsSDolG6IlFo29+k77dnzzK8elnXsSVwjx+YMDdSaFVW4V5aP64LTcenxLRsPLk59L4qNiFjPk07O4po9RZeX4N9dPgYOTbjsU52a5V7nIrTomWzgITayfHZiPoNWEGd54r1akHRvGYf+DTLpmReAKrYMfMcXGPIwhYeo9i/n1AbOMRqRD1dE6uqurBp0Xew5rRRNXTYLTjuliqnlcf+vZnt5Pyss/6JpT54BtqxaeUGtcw8t/IFHBsgcbTU5ftULjXA65sUw6VmfgdZGi8lCEROCiPDetCLHTZrhH7TJNF4H+7QG3zA+5tC2/qX5l58M8ISwdYOEmBo0eu1oKfQh3+K5c6JAouTSd16X2p/TuvHc9jxPj2HFlZihqPTX1BRRn/9ONlhLCeD585V+KfyLvxa7XcT2vvLsDhCkK2C75p5jgvx6/dht/KYggRl+GYomJvE1BK6idJx7ciAy7JicqXatv2caZ/TuC08qJxsv8E/PLUUXlzAn2O50Ap8WLW6Eqc2Wi0b9pu16hCXFOOYXmfhohb4bVYeEgJs+aFjsHYUT2ymp2yqPbaROs7XdeUw4fE9rjtxPn7u1MpQ7+j4uUNc5etFi1qHCp0T6HOhjpNE3LLtxnc+N9SZUgf3mPGdtyxaSVfs8MJWqXr6bYa+J/p+H7F1/CwWHsfUq2HrxyY6Tav1g616Leo054YFE4m/R3we+snR50yBsH4lFi5bg2ZjaQih785qkaPvxONrtItvbeUpbn8hdJ4tfv5c+No2xA1fG3Xh653EXj39nIL0uWVr+MyaUMPLp962n+eTdZhaQK9lNa7C5pkTF+jvWHx9vrEcwUN3o4o/T+dSk+cB80LuknvCKGQ9SFMHPKqYbu5BdJ2w/Py58/8vl1v9GRIMoXotXibUJD3arXvvMvy7tZOn/f03izfLtrpPdKkO197pP4FJdO7B91tSO/f+dvz6t0+iWy0040iP/fgr5s1FOYsby7l3732ZBBSJwlmW22DHChJMdHR3PqIEU8W8R+ArDKK9OdZ3osUTHcOOJEVd+a3UMfX3okcvmwKusqeFjo1u8LeyQDLxYnall76rc3hG17hjFy7Nh7i9rTfrJtRThxhs32IRNySEWCBYO05TNJBgUhYn3cH4t8cRReZ6+zPcwfITf6gTb8bbp+g7t3Zq1JHOVcdrETd0Ti+TULR1nCQGWDyaHXHDukbqILkN44iih8aimF6CvRkejWAVLvQ9ddBX4qm6m646g4Z1c+nbJRFnsX40r9kSYf0IWUQeY4uTFn8Oq8lw4idRFLLIre+gM/Kgalb4HmFaeV5W4sbguZUkFG2ithlrlhl1hkgm0biEL4IWLYoI/b31Xgpvx3hQAFqUSC5GiVWQmew5hw/pZeSoKO6019/GKRJltDN0WCyLgpBN5JwwcrceDIIrvUqAJBL70tNt7wK6r/bS32KMjvO5ROj52BGpcPkwurjTL58ZdqfV1JBwcYi4JAj2HNaiyI0GzCgnAXKmwyFumnH5Gr2MGGtz64UEUwNb70hAvP9y2M0VwuqWW0XiiURXSJiliHIlzkVf80I8vZdv0E48GEmnEbjqaE8nA114O6ZwqaFuI4hThxxtfdq4XkZO1MsMiQa2NLDVYpfuYKzupBBWtxytx0/nruulkYgnfgcNs4zfk7OTar5kXNvWzi8kJFazhckpGt0wrUou7Zhm/MdjCZcG3F3FVp8Oh4hrxsWr9GJzZ5Jo+G07gmxRZAsTi7/fDod1yI3I78lOFCsPzuAqW4iKrfEGpsivp+uRLZx20WjHcH+tKt6HhXGtg0HwT8/LP0JXWJSxJWv4rYyCEA0JvlYutxb0KHFkduKZznkUOWKLxYWdZrz6Dt24LO405UY7s89FgKSDMhQV0gu79BzHFhG/paDj264DT/vb8cpet66D1vmtxWW4B1hM20s1n1I5x0fNB3Y8b4k1yhANY/h52RABITHDZTV39JEYT+VMjA6GXTDavcFurVNVj9M2hzfWoqyYz4ZdLY7zZIEXgRYN/K/DKhEJd6YsLKhF4lnPMs4EjFTuHxYB9vNkq10E2mLGxBd/WYS28rD71H6exvcQgRb0jM1iaMNwQVadesFikROE/EaEkcIygkrHzyzOmDhiUVSPcnZrmfukwq6pCDo6lGAz3GmGG81ptUoffvT10wu7Cy3HFSoRlh46jwYSCWf8icdadaxQ8V42K1gCKGsa7WOxio+yuusMMRf8WN/d04hhMWFXkSlk7MVu6WERQE/dA374OYYnoeSRpsgY3lgLfy9fdxwn5HaeTkFDnSQLQz+dJ1tUHLFKVp7YbHTGQ2EVi49hMVHuNrfzdMYLcXC1zwM/nSeLjJwZUff6Bair1hJfZCsOYcOusfqyIJ0nx9c5BgrobZUtMWKaQi42wnho6MXFXBGMgpAkOSeMXN1XOu4oLVDnbYij+C4yZcHp78KRZKwXyh1Gnf07ibiUjDgmJSTU59LoQozA3WUWjQXfJnFHx7Pjv0jsqFir+pRHysXDiLdyaTNX12I8U36CuLnMohCKt/ntSqzYT9dOROBvshiuC37az3Sn7OYyi4YRVM4WsZVoYYuKGVflgIO57YG8UYg22i3tuLnMohGOt1mxslUFKTuD8pPGdKFmPNu6m8ssCjqonC1iK1byyEEzrsrEiNNiy2CL4yHA3S1pEt+VbY5+yxnBKVx35J7FSFtRwsHAhuUC/dF/iLHgEWLODt0Y+dWLy7EET82LysWUmMCxoGKagPKK8K12gRpl596RK1HAFpn5ZakHXSeIGk6fgPWH20yduw6AN+KN6Jzmx7ayhT6XbJvp4HTb9nk0oWoTZ2xTAAe7AiTUSgeXhVcPp494knairQshl4t2T0SMFopAW18iOh5Gu36Isnsy3Jmu586fXYaxO3/DukD9oXa5GPFGkaIhYVHETOSBD4w1MDgzPLdNxw3FsHIZgtQabxO26jlH8iWDYWEhaP/1GRUDdLwszEmwug/jNwlfe4Y7VMcbOQS92WbWOsMSGMNdPL8Ut9PL1SvR8ocZcVBMxq9tQUiRHHSlPYd/N4e3qxgYIxD3lfCQJYU1X4+KkeEOXy9bY1x4hNjJinA8jVp/BLu5IkdYlc+3rDe/WCUbtI4uS2if5nB3SyzPNz/e5O5KY3QQNltCUg26Thgz3solzigkHkkQKhFnG11mxhtZXJAsXBzbMFMF2EbkJcju/+K0C7x9vT2dYuFpl9imV46dI3kUY8hwgjy30hzSbTzhhor55M8WDxWL48c+iwgw4o1YbIRFlfmUHC562LXrsO8NhkVmSDCCYY0h3Y5jNMWAFn9264FFNJgWHz3CjYmMc3GxEChRpv/PNDx60Ey3EOW4wu6/1rA1xIw34s+Z7RGydFHRMWfh840U0mYupyGB49h0ugXrOYaPyxR/dNVaR0SGBL0jTYNjW/Vl7HaNHji9dvJYasATeDNqqgzLtV1QrI5DELKNG6qn3Pl3/X+IAu8IfPrJAL74/G+65jpH5zq6uie1Tn1w8MiuVfDBOtReiMfa1Q/g/gkX8OZP2+IM289SuPNV8TzWYej5B1uiVDyPdRh6HmJY0uwpIvIOnobne5NxdecbsafhuU6ubSF3keDrbGf0TFQWpuB+us55ZtcJZTW6fzU9weYc9FRvJk/M546DOkgzeWI+iyK2uBnuxRwa4ZY0XvyywZiGJ7q1yEDlWgKJxG0iioTsRIRRVmOO/GoZBktVjtN1CnU7LwATatGaQ3M3qSR6PLwa7diUt7ledHD5ah/AI6jyVvzxUHc6zyVlyiIWN+Yqh1m7ej6mey7gzWeiT8NjXNs7UT+Sr+08tpwJOY+40hJhqF1pen8qMNWWbduCdZ1YRPv8sKPTFuilqNiydSfPww3z8YPKc/hVjBu2IAiDQLnQStH5H3vwwy5dJwg5jAgjQRAEQRAEjbjSBEEQBEEQNCKMBEEQBEEQNCKMBEEQBEEQNCKMBEEQBEEQNCKMBEEQBEEQNCKMBEEQBEEQNHkjjHgi1v/z2PrImeFDc3bFnuA0LYT2pYvb8QwLnDPIPkfc9QLnMTqwtgoP62VGzVuW8ZnOhxsjuWDsyUSHD56y5UBOZiUXBCHfEYtROlGTsC7Ev1DZcUbXCcPH/Fr8wOfFhwcluWO2oaZsybGs5IIgXB/kvzAKiZXI2fKFTGJYqULWM0sJzdSfIhXztuptxbACcjbeRWMRaN8Te0LLIcKcDiGi5LHlKnzOevZ9K3rKFq9vPl6er+sEQRCyALEYCRkl+P4mZUGzlkFNqzJ6PR6+M+5EKFi70JjQ8j+bA7omG/CjZdEiLLSWZWuQlzNomRPExmJPG948A9y+qBZrdZUgCMJwk7PCKGw1MMriCfoNk2TifZzrOi0R6v2t+O5oHcuUyDbjYNsOl29bn6m1tcVt+zUvqvVTtbrY283N4tKA7z5mvs/FOO8QobZya6No20wfC2b54Olvx473g7rGhcoq3EvXQ1wXGnXeWy3Wmxef1PVWntwcel+VzU36DUZPErrz91j3kK5SRKsfHuzWKhfrDeG0aNlik0Lt5PhstHpCzaA+0I6W9hjfE6FcahiLe2O51PR3kK3xUoIg5Bc5KYxYVPzTnb3YYbFCRMT0JBrvwx16gw+wWjaae/FNm1BhPPA1kABDi16vBT2FPvxTxHrxYXEyqVvvS+2vHcEJ9RZx9JzR8RdWYoZVlBALKsrorx8nU7C6eO5chX8q78Kv1X43ob2/DIsjBNkq+K6Z57gQv34fdN4WccTtusdP/5Thm6FgbhJTS3hCWz99Jxl0WZIoXDwhiPbtT6JHV7nx8NRSeHEBf47lQivwYdXqSpzaaFhuNlEHXrbE3sErsbCkGMf0OgsXtcBfVm8RRxuwYiN9d3TmU5eGBdMTm+updYL0ueGfQdzjexyrqrqwSR3/Czg2UIZ6m7jj492JVb7esDWLzgn0uZAQeX0Nlm03vvO5IXHSgHWPGd95y6KVdMVaICFTX0bn/9s19G4cui6iky51b2WJLUDeyhNT+Jqnc6m6O88D5gVByAZyTxiRkPnmBKBnT5o64FHFdHMPouuExaHBnb/bjPS2meq1eJlQk7SFpHvvMrs7ifb33yzeLNvqPtGlOtzKydau4AlMonMPvt+S2rnbZqpvxpEe+/FXzJuLchY3lnPv3vsyCSgShbMskqFjBQkmOro7H1GCqWLeI/AVkmBpjvxOWIyFrU+DiS8i0Taf5Mb7L+PVy7rKFS9mV3rpuzqHZ3SNO3bh0nyI27sMNSGrURPqfXRltG+xiBsSQiwQyuaGLUGmaCDBpCxOShSQdN3uJopIlGiLjCpDEV800I5NIXddM94+Rd95WU1YAD60DnPV8VrEDZ3TyyQUPb668HrrVyrx6PE1qnNvWNeIqQXchg5RxNayJfQ92dotFgEc7ArQhTICt+saJ88dN+RV8NTb+el2FAQhq8g5YVQxuVI9paZiMXHlSq8SIDarSBR6uu1dQPfVXvpbjNFxPpcIPR9Th2Xl8mF09VN/UT4z7E6rqSHh4hBxSRDsOaxFkRsNmFHuIUHR4RA3zbh8jV5GjLW59UKCqYGtdyQgIgTLc/h30yIWsj4FUT4/tbQBpmj7773xzt2DkXQagauO9nQy0IW3Y3XcT9Yoq8+pQ479nTaul5ET9TJDoqGFtdESEjskCuBvwYr1+j1N85rvaKuTWVrgZ6tVFNdWuognJhpmGb+nDufxXjKu7RKLK7B5zRYcG/Bg6mq2MDlFo0HDurnUbn7sW5P4NfrKFf6uPBhbaSxHQO3LbbYsiW0KgiCkigRfK5dbC3qUODItG5mNk1HWD4sVhQuLCzvNePUd6m0t7jTlRjuzL47FJFXKUFRIL+zScxxbRPyWgo5vO7uRiP52vBJXsJhiyiH2EmG0EXCdNithAjSMKaa/hggIWXi4rGb3USTPrSSho/7zo2XlBvVfbLT1yWalGnrKivlsHJYsLizwImjGmt/q73ygHS87hYoOuLZZnwRBEHIMEUYKi3VDx88szpg4YlFUj3J2azmsKRF0dCjBZrjTDDea02qVPvzoI9Gi3IWW4wqVkAvOhM6jgUTCGX8SsVba+lRYjHKjIgF0/BId16BGsyWJYTFhV5HVyhMudotQA9ZtrUfZgB9+juFJ1EWmrE9A8ZiMO9Si4u/lI3AZLaeK0x3YhBdZGPrpPNnaZYtV0jFHLtYyQRCEXCLnhJGr+0rHHaWFjhVaHMV3kSkLTn8XjiRjwVHuMBI47ziFhhtGHJOysKjPpdGFGIG7yywaC75N4o6OZ8d/rdCxVvUJxA8Z4i7SXReD0TNR6WLJMixsLGB52Spig2Avmpf9aYPBzWUWhVC8zW9XYsV+unZINDySwAgqw43l4q5TQsuw3LiOlEsjbi6zaBhB5WwRW2mMNjPjqpiH7kZVAb1ycLrF8sQut7BFyt1t+PAoXieIC13GcgTm6Le8z1YuCEI2kHsWI21FCQcDG5YL9POTb/LwCDFnh26M/OrF5ViCR42QSlTgWFAxTUB5RbiLWKBG2bl35CoImy0yKvA4xaDrBNl9qN3YVxzrD7eZOnft2jJdZOXzY1nZOA2AKaaSsHpZRhdai2Fh41FwvGx1selg3gmlg8uN8/oa7CONU7YkzpD7Jzfb4210vJEZpBwV5+dsTMBIFhlE2T0ZFgPrW3XcUOxYJx6hZwSVG24yI96I20d/joPQXaxOHLAdtki5udh0sHzwGj7UNU4MAUmQ4KwfRrejIAjXBznoSnsO/24Ob1fWgrnoa16IVxzjt635elSMDHf4etka/MsjxE5WGPWh9UewmysynoUDh0PrzS9GO+3X6t5JaJ/mcHeLBeSbH29yd6UxOgibn6hTDbpOGDPeyiXOKCQeSRAqEce5hELnbsYbWVyQobxGZjHTAGQ+TuiVY+dUbpyvDzKj8nMruWNHZJyRablgS4aKxbEHGxvxRiw2wqJKzc9m3YZOA+AeULwhbv6f9NGMNcsWkZhziTMyXWVaxHFcUUvITWbGG/HnBhFAXlmCatp0rJxTzWv2UXsaDKfbURCE64Mbqqfc+Xf9f4gC7wh8+skAvvj8b7rmOkfnOrq6Z5BZm1OCLS0kKmAdai/EgycpvX/CBbz507Y4w/azFBZdKp6nBQsTCubOTdT3VHQCv3omdjJOFpYqN1IW5IYSBCG/keDrbEfH2CTtsrvOMTMq35+TM7hbkifmsSjiSX7vn5BYhnLOtQT/PhFFgiBkHBFGWY058mtoR2TlBXqSUuTYDO7G1ByPYyrasck1JidPSGiSXz21ymofercvymvLmSAI2YO40hJhqF1pen8q4NSWbduCdZ1YRPv8sKPTFuilqNiydSfPww3z8YPKc3FdNcLQolxoaMOcjSReBUEQsggRRoIgCIIgCBpxpQmCIAiCIGhchdFA4JpYiwRBEARBuO4Qi5EgCIIgCIJGhJEgCIIgCIJGhJEgCIIgCIImhjB6CnUb2vB9Lj96StcJgiAIgiDkL67D9e2wQFqGip6teP4XT+s6QRAEQRCE/CMBV9rTONwWAIrHo0jXCIIgCIIg5COJxxh5R6JY/ysIgiAIgpCPSPC1IAiCIAiCRoSRIAiCIAiCJiFh1Hf5I/2fIAiCIAhC/pKYxejMVfRhImY2PqorBEEQBEEQ8o8EhuuHqfhRG+rKgb62n2PLlpd0rSAIgiAIQn6QmDCatBGNq2rRu60Wrbt0nSAIgiAIQp6RkCutaPokFOE0TokoEgRBEAQhj5FRaYIgCIIgCBoRRoIgCIIgCBoRRoIgCIIgCBoRRoIgCIIgCJoEhNFTmFnrBXreRbeuEQRBEARByEdiDNd/CnUblqGC/w20YcvPVqNP1QuCIAiCIOQnSSV4FARBEARByGckxkgQBEEQBEEjwkgQBEEQBEEjwkgQBEEQBEEjwkgQBEEQBEEB/P8BHtHqBLn58AsAAAAASUVORK5CYII=;" vertex="1" parent="1">
          <mxGeometry x="-40" y="48" width="369.18" height="170" as="geometry" />
        </mxCell>
        <mxCell id="RA9JSMZMmfBFjFqPAGHw-105" value="" style="edgeStyle=orthogonalEdgeStyle;rounded=0;orthogonalLoop=1;jettySize=auto;html=1;" edge="1" parent="1" source="RA9JSMZMmfBFjFqPAGHw-102" target="RA9JSMZMmfBFjFqPAGHw-104">
          <mxGeometry relative="1" as="geometry" />
        </mxCell>
        <mxCell id="RA9JSMZMmfBFjFqPAGHw-102" value="hex5-0에&amp;nbsp;&lt;br&gt;msec를 자리수로 구분하여 할당" style="whiteSpace=wrap;html=1;rounded=0;" vertex="1" parent="1">
          <mxGeometry x="-239" y="190" width="120" height="60" as="geometry" />
        </mxCell>
        <mxCell id="RA9JSMZMmfBFjFqPAGHw-104" value="display_hex3_0&lt;div&gt;display_hex5_4&lt;/div&gt;" style="whiteSpace=wrap;html=1;rounded=0;" vertex="1" parent="1">
          <mxGeometry x="-239" y="265" width="120" height="60" as="geometry" />
        </mxCell>
      </root>
    </mxGraphModel>
  </diagram>
</mxfile>
